<?xml version="1.0" encoding="UTF-8"?>
<svg width="256" height="256" viewBox="0 0 256 256" fill="none" xmlns="http://www.w3.org/2000/svg">
  <rect width="256" height="256" rx="32" fill="#0A192F"/>
  <path d="M70 120.5C70 115.5 71.5 111.5 74.5 108.5C77.5 105.5 81.1667 104 85.5 104C88.3333 104 90.8333 104.667 93 106C95.1667 107.333 96.8333 109.167 98 111.5V104.5H110V153H98V146C96.8333 148.333 95.1667 150.167 93 151.5C90.8333 152.833 88.3333 153.5 85.5 153.5C81.1667 153.5 77.5 152 74.5 149C71.5 146 70 142 70 137V120.5ZM98 137V121C97.3333 118.667 96.1667 116.833 94.5 115.5C92.8333 114.167 90.8333 113.5 88.5 113.5C86.1667 113.5 84.1667 114.333 82.5 116C80.8333 117.667 80 119.833 80 122.5V135.5C80 138.167 80.8333 140.333 82.5 142C84.1667 143.667 86.1667 144.5 88.5 144.5C90.8333 144.5 92.8333 143.833 94.5 142.5C96.1667 141.167 97.3333 139.333 98 137Z" fill="#64FFDA"/>
  <path d="M116 128.5C116 123.5 117.333 119.5 120 116.5C122.667 113.5 126.333 112 131 112C134.333 112 137.167 112.833 139.5 114.5C141.833 116.167 143.5 118.333 144.5 121V113H156V153H144.5V145C143.5 147.667 141.833 149.833 139.5 151.5C137.167 153.167 134.333 154 131 154C126.333 154 122.667 152.5 120 149.5C117.333 146.5 116 142.5 116 137.5V128.5ZM144.5 137.5V128.5C143.833 126.167 142.667 124.333 141 123C139.333 121.667 137.333 121 135 121C132.667 121 130.667 121.833 129 123.5C127.333 125.167 126.5 127.333 126.5 130V136C126.5 138.667 127.333 140.833 129 142.5C130.667 144.167 132.667 145 135 145C137.333 145 139.333 144.333 141 143C142.667 141.667 143.833 139.833 144.5 137.5Z" fill="#64FFDA"/>
  <path d="M180 125L189 113.5H199L187 126.5L198.5 151.5H186.5L177.5 137.5L172 143V151.5H162V93H172V124.5L180 125Z" fill="#64FFDA"/>
  <path d="M215 104V153H203V104H215Z" fill="#64FFDA"/>
  <path d="M215.5 90.5C215.5 92.1667 214.833 93.5833 213.5 94.75C212.167 95.9167 210.5 96.5 208.5 96.5C206.5 96.5 204.833 95.9167 203.5 94.75C202.167 93.5833 201.5 92.1667 201.5 90.5C201.5 88.8333 202.167 87.4167 203.5 86.25C204.833 85.0833 206.5 84.5 208.5 84.5C210.5 84.5 212.167 85.0833 213.5 86.25C214.833 87.4167 215.5 88.8333 215.5 90.5Z" fill="#FF5555"/>
</svg>
