<?xml version="1.0" encoding="UTF-8"?>
<!DOCTYPE svg PUBLIC "-//W3C//DTD SVG 1.1//EN" "http://www.w3.org/Graphics/SVG/1.1/DTD/svg11.dtd">
<svg xmlns="http://www.w3.org/2000/svg" version="1.1" width="354px" height="345px" style="shape-rendering:geometricPrecision; text-rendering:geometricPrecision; image-rendering:optimizeQuality; fill-rule:evenodd; clip-rule:evenodd" xmlns:xlink="http://www.w3.org/1999/xlink">
<g><path style="opacity:1" fill="#36676f" d="M 168.5,66.5 C 168.586,67.4959 168.252,68.3292 167.5,69C 162.341,70.8547 159.341,74.3547 158.5,79.5C 157.143,80.6854 155.643,81.6854 154,82.5C 152.588,81.0773 151.421,81.244 150.5,83C 148.527,83.4955 146.527,83.6621 144.5,83.5C 144.775,81.2417 145.775,80.9084 147.5,82.5C 151.148,81.5268 152.814,79.1935 152.5,75.5C 156.033,71.5652 160.366,68.8985 165.5,67.5C 166.609,67.4431 167.609,67.1098 168.5,66.5 Z"/></g>
<g><path style="opacity:0.878" fill="#50fdfd" d="M 165.5,67.5 C 160.366,68.8985 156.033,71.5652 152.5,75.5C 151.733,76.172 151.066,77.0053 150.5,78C 146.748,78.2401 143.081,78.7401 139.5,79.5C 139.372,77.3453 139.872,75.3453 141,73.5C 144.667,70.8333 148.333,68.1667 152,65.5C 152.689,66.3567 153.522,67.0233 154.5,67.5C 157.648,66.7878 160.814,66.1211 164,65.5C 165.03,65.8361 165.53,66.5028 165.5,67.5 Z"/></g>
<g><path style="opacity:1" fill="#342f2e" d="M 177.5,67.5 C 176.957,67.56 176.624,67.8933 176.5,68.5C 181.223,69.4617 185.557,71.2951 189.5,74C 181.971,74.3892 181.971,75.8892 189.5,78.5C 190.167,79.1667 190.833,79.8333 191.5,80.5C 180.321,80.8279 169.321,80.4946 158.5,79.5C 159.341,74.3547 162.341,70.8547 167.5,69C 168.252,68.3292 168.586,67.4959 168.5,66.5C 170.884,66.5567 173.218,66.2234 175.5,65.5C 176.713,65.7472 177.38,66.4138 177.5,67.5 Z"/></g>
<g><path style="opacity:0.771" fill="#fb3508" d="M 199.5,76.5 C 196.167,77.1667 192.833,77.8333 189.5,78.5C 181.971,75.8892 181.971,74.3892 189.5,74C 185.557,71.2951 181.223,69.4617 176.5,68.5C 176.624,67.8933 176.957,67.56 177.5,67.5C 181.042,66.3254 184.709,65.6587 188.5,65.5C 188.5,66.5 188.5,67.5 188.5,68.5C 194.139,68.3998 198.806,70.3998 202.5,74.5C 200.602,74.9963 199.602,75.663 199.5,76.5 Z"/></g>
<g><path style="opacity:0.757" fill="#4dfbfb" d="M 152.5,75.5 C 152.814,79.1935 151.148,81.5268 147.5,82.5C 145.775,80.9084 144.775,81.2417 144.5,83.5C 143.15,88.6328 144.817,89.6328 149.5,86.5C 150.183,86.8627 150.85,87.1961 151.5,87.5C 151.167,88.5 150.5,89.1667 149.5,89.5C 148.234,90.0899 146.901,90.5899 145.5,91C 146.741,92.4865 146.241,93.3199 144,93.5C 140.243,93.6111 137.909,91.9444 137,88.5C 133.737,90.8396 131.57,89.8396 130.5,85.5C 130.97,83.2262 131.97,81.2262 133.5,79.5C 135.353,81.7384 137.353,81.7384 139.5,79.5C 143.081,78.7401 146.748,78.2401 150.5,78C 151.066,77.0053 151.733,76.172 152.5,75.5 Z"/></g>
<g><path style="opacity:1" fill="#fb2c01" d="M 199.5,76.5 C 206.505,81.163 211.171,87.4964 213.5,95.5C 209.952,95.9051 206.619,95.4051 203.5,94C 213.918,91.7214 213.585,90.7214 202.5,91C 202.833,91.3333 203.167,91.6667 203.5,92C 202.584,92.2784 201.918,92.7784 201.5,93.5C 200.5,92.1667 199.5,90.8333 198.5,89.5C 198.573,87.9731 197.906,86.9731 196.5,86.5C 195.581,83.9108 193.914,81.9108 191.5,80.5C 190.833,79.8333 190.167,79.1667 189.5,78.5C 192.833,77.8333 196.167,77.1667 199.5,76.5 Z"/></g>
<g><path style="opacity:1" fill="#343131" d="M 158.5,79.5 C 169.321,80.4946 180.321,80.8279 191.5,80.5C 193.914,81.9108 195.581,83.9108 196.5,86.5C 181.676,87.4961 166.676,87.8294 151.5,87.5C 150.85,87.1961 150.183,86.8627 149.5,86.5C 144.817,89.6328 143.15,88.6328 144.5,83.5C 146.527,83.6621 148.527,83.4955 150.5,83C 151.421,81.244 152.588,81.0773 154,82.5C 155.643,81.6854 157.143,80.6854 158.5,79.5 Z"/></g>
<g><path style="opacity:1" fill="#3d3c3c" d="M 196.5,86.5 C 197.906,86.9731 198.573,87.9731 198.5,89.5C 189.844,90.0872 181.178,90.5872 172.5,91C 173.056,91.3826 173.389,91.8826 173.5,92.5C 173.167,92.5 172.833,92.5 172.5,92.5C 168.992,90.7747 165.326,89.4414 161.5,88.5C 159.519,88.4371 157.852,89.1038 156.5,90.5C 156.855,91.5223 157.522,92.189 158.5,92.5C 155.932,93.6431 153.265,93.4764 150.5,92C 149.748,91.3292 149.414,90.4959 149.5,89.5C 150.5,89.1667 151.167,88.5 151.5,87.5C 166.676,87.8294 181.676,87.4961 196.5,86.5 Z"/></g>
<g><path style="opacity:1" fill="#39302f" d="M 198.5,89.5 C 199.5,90.8333 200.5,92.1667 201.5,93.5C 202.038,95.1172 202.371,96.7839 202.5,98.5C 196.69,99.4896 190.69,99.8229 184.5,99.5C 181.088,96.9495 177.422,94.6162 173.5,92.5C 173.389,91.8826 173.056,91.3826 172.5,91C 181.178,90.5872 189.844,90.0872 198.5,89.5 Z"/></g>
<g><path style="opacity:0.808" fill="#75fdfd" d="M 172.5,92.5 C 174.842,96.0013 177.508,99.3346 180.5,102.5C 179.703,104.132 178.703,105.632 177.5,107C 177.833,108 178.167,109 178.5,110C 176.704,111.753 175.538,113.92 175,116.5C 173.989,117.337 172.822,117.67 171.5,117.5C 171.5,118.833 171.5,120.167 171.5,121.5C 165.779,127.049 163.779,125.382 165.5,116.5C 165.5,116.167 165.5,115.833 165.5,115.5C 166.925,114.078 167.925,112.411 168.5,110.5C 171.972,101.2 168.638,95.1998 158.5,92.5C 157.522,92.189 156.855,91.5223 156.5,90.5C 157.852,89.1038 159.519,88.4371 161.5,88.5C 165.326,89.4414 168.992,90.7747 172.5,92.5 Z"/></g>
<g><path style="opacity:0.906" fill="#b0f8f8" d="M 172.5,92.5 C 172.833,92.5 173.167,92.5 173.5,92.5C 177.422,94.6162 181.088,96.9495 184.5,99.5C 184.953,100.458 185.619,101.292 186.5,102C 185.552,102.483 184.552,102.649 183.5,102.5C 183.737,103.791 183.404,104.791 182.5,105.5C 181.167,106.167 181.167,106.833 182.5,107.5C 182.5,108.5 182.5,109.5 182.5,110.5C 180.292,111.894 178.792,113.894 178,116.5C 176.074,118.539 173.907,120.206 171.5,121.5C 171.5,120.167 171.5,118.833 171.5,117.5C 172.822,117.67 173.989,117.337 175,116.5C 175.538,113.92 176.704,111.753 178.5,110C 178.167,109 177.833,108 177.5,107C 178.703,105.632 179.703,104.132 180.5,102.5C 177.508,99.3346 174.842,96.0013 172.5,92.5 Z"/></g>
<g><path style="opacity:0.937" fill="#fe2c00" d="M 213.5,95.5 C 215.597,100.714 215.931,106.047 214.5,111.5C 210.629,111.815 206.962,111.482 203.5,110.5C 203.817,106.298 203.483,102.298 202.5,98.5C 202.371,96.7839 202.038,95.1172 201.5,93.5C 201.918,92.7784 202.584,92.2784 203.5,92C 203.167,91.6667 202.833,91.3333 202.5,91C 213.585,90.7214 213.918,91.7214 203.5,94C 206.619,95.4051 209.952,95.9051 213.5,95.5 Z"/></g>
<g><path style="opacity:1" fill="#3f3434" d="M 202.5,98.5 C 203.483,102.298 203.817,106.298 203.5,110.5C 201.399,116.036 198.732,121.37 195.5,126.5C 194.167,127.833 192.833,129.167 191.5,130.5C 180.679,129.505 169.679,129.172 158.5,129.5C 158.5,128.5 158.5,127.5 158.5,126.5C 160.5,126.5 162.5,126.5 164.5,126.5C 174.316,125.203 181.983,120.37 187.5,112C 185.618,111.802 183.952,111.302 182.5,110.5C 182.5,109.5 182.5,108.5 182.5,107.5C 182.5,106.833 182.5,106.167 182.5,105.5C 183.404,104.791 183.737,103.791 183.5,102.5C 184.552,102.649 185.552,102.483 186.5,102C 185.619,101.292 184.953,100.458 184.5,99.5C 190.69,99.8229 196.69,99.4896 202.5,98.5 Z"/></g>
<g><path style="opacity:0.004" fill="#fefffe" d="M 168.5,110.5 C 167.833,109.167 167.833,109.167 168.5,110.5 Z"/></g>
<g><path style="opacity:0.982" fill="#506468" d="M 182.5,110.5 C 183.952,111.302 185.618,111.802 187.5,112C 181.983,120.37 174.316,125.203 164.5,126.5C 164.187,122.958 164.521,119.625 165.5,116.5C 163.779,125.382 165.779,127.049 171.5,121.5C 173.907,120.206 176.074,118.539 178,116.5C 178.792,113.894 180.292,111.894 182.5,110.5 Z"/></g>
<g><path style="opacity:0.633" fill="#fb4e19" d="M 240.5,114.5 C 240.5,115.167 240.167,115.5 239.5,115.5C 237.585,115.784 235.919,115.451 234.5,114.5C 236.053,112.615 238.053,111.615 240.5,111.5C 240.5,112.5 240.5,113.5 240.5,114.5 Z"/></g>
<g><path style="opacity:0.004" fill="#fefffe" d="M 134.5,114.5 C 135.525,114.897 135.692,115.563 135,116.5C 134.536,115.906 134.369,115.239 134.5,114.5 Z"/></g>
<g><path style="opacity:1" fill="#3e656d" d="M 150.5,111.5 C 153.099,111.549 155.266,112.549 157,114.5C 157.499,120.157 157.666,125.824 157.5,131.5C 155.833,131.5 154.167,131.5 152.5,131.5C 152.167,131.5 151.833,131.5 151.5,131.5C 151.751,125.108 151.418,118.775 150.5,112.5C 150.5,112.167 150.5,111.833 150.5,111.5 Z"/></g>
<g><path style="opacity:0.874" fill="#383333" d="M 71.5,114.5 C 87.6754,114.17 103.675,114.504 119.5,115.5C 104.074,117.46 88.4074,118.127 72.5,117.5C 71.596,116.791 71.2627,115.791 71.5,114.5 Z"/></g>
<g><path style="opacity:0.31" fill="#ffcfc5" d="M 216.5,113.5 C 217.776,114.386 217.776,115.386 216.5,116.5C 215.378,117.63 214.044,118.297 212.5,118.5C 211.756,115.05 213.09,113.384 216.5,113.5 Z"/></g>
<g><path style="opacity:0.993" fill="#403737" d="M 165.5,115.5 C 165.5,115.833 165.5,116.167 165.5,116.5C 164.521,119.625 164.187,122.958 164.5,126.5C 162.5,126.5 160.5,126.5 158.5,126.5C 158.5,127.5 158.5,128.5 158.5,129.5C 169.679,129.172 180.679,129.505 191.5,130.5C 190.833,131.833 189.833,132.833 188.5,133.5C 176.678,132.505 164.678,132.172 152.5,132.5C 152.5,132.167 152.5,131.833 152.5,131.5C 154.167,131.5 155.833,131.5 157.5,131.5C 157.666,125.824 157.499,120.157 157,114.5C 155.266,112.549 153.099,111.549 150.5,111.5C 150.192,109.076 150.526,106.743 151.5,104.5C 156.185,108.19 160.852,111.857 165.5,115.5 Z"/></g>
<g><path style="opacity:1" fill="#423635" d="M 240.5,114.5 C 256.167,114.5 271.833,114.5 287.5,114.5C 285.582,119.343 282.916,123.677 279.5,127.5C 266.677,126.505 253.677,126.171 240.5,126.5C 238.573,122.943 238.239,119.276 239.5,115.5C 240.167,115.5 240.5,115.167 240.5,114.5 Z"/></g>
<g><path style="opacity:1" fill="#483f3f" d="M 119.5,115.5 C 119.5,117.5 119.5,119.5 119.5,121.5C 119.167,121.5 118.833,121.5 118.5,121.5C 104.167,120.167 89.8333,120.167 75.5,121.5C 74.5116,120.205 73.5116,118.872 72.5,117.5C 88.4074,118.127 104.074,117.46 119.5,115.5 Z"/></g>
<g><path style="opacity:1" fill="#406a72" d="M 65.5,114.5 C 67.5,114.5 69.5,114.5 71.5,114.5C 71.2627,115.791 71.596,116.791 72.5,117.5C 73.5116,118.872 74.5116,120.205 75.5,121.5C 76.4746,123.795 77.8079,125.795 79.5,127.5C 79.9321,128.71 80.5987,129.71 81.5,130.5C 79.8333,131.167 78.1667,131.833 76.5,132.5C 75.7281,131.306 74.7281,130.306 73.5,129.5C 70.037,124.906 67.3704,119.906 65.5,114.5 Z"/></g>
<g><path style="opacity:0.917" fill="#49fdfd" d="M 65.5,114.5 C 67.3704,119.906 70.037,124.906 73.5,129.5C 70.0381,130.482 66.3714,130.815 62.5,130.5C 57.9449,125.942 54.6115,120.608 52.5,114.5C 56.8333,114.5 61.1667,114.5 65.5,114.5 Z"/></g>
<g><path style="opacity:1" fill="#fc3206" d="M 203.5,110.5 C 206.962,111.482 210.629,111.815 214.5,111.5C 215.329,112.332 216.162,111.999 217,110.5C 217.47,111.577 217.303,112.577 216.5,113.5C 213.09,113.384 211.756,115.05 212.5,118.5C 211.018,121.622 209.351,124.622 207.5,127.5C 206.833,127.5 206.5,127.833 206.5,128.5C 205.833,128.5 205.5,128.833 205.5,129.5C 205.167,129.5 204.833,129.5 204.5,129.5C 201.15,129.665 197.817,129.498 194.5,129C 195.252,128.329 195.586,127.496 195.5,126.5C 198.732,121.37 201.399,116.036 203.5,110.5 Z"/></g>
<g><path style="opacity:0.999" fill="#fc2e01" d="M 287.5,114.5 C 291.5,114.5 295.5,114.5 299.5,114.5C 293.177,126.478 285.844,137.811 277.5,148.5C 273.671,149.069 270.337,148.402 267.5,146.5C 269.075,142.922 271.075,139.589 273.5,136.5C 274.6,135.395 275.267,134.062 275.5,132.5C 277.543,131.421 278.876,129.754 279.5,127.5C 282.916,123.677 285.582,119.343 287.5,114.5 Z"/></g>
<g><path style="opacity:1" fill="#403838" d="M 118.5,121.5 C 118.819,126.363 118.486,131.03 117.5,135.5C 117.5,134.5 117.5,133.5 117.5,132.5C 103.99,132.171 90.6562,132.504 77.5,133.5C 76.8333,133.5 76.5,133.167 76.5,132.5C 78.1667,131.833 79.8333,131.167 81.5,130.5C 93.5,130.5 105.5,130.5 117.5,130.5C 117.5,129.167 117.5,127.833 117.5,126.5C 104.656,126.171 91.989,126.505 79.5,127.5C 77.8079,125.795 76.4746,123.795 75.5,121.5C 89.8333,120.167 104.167,120.167 118.5,121.5 Z"/></g>
<g><path style="opacity:1" fill="#4efcfc" d="M 150.5,112.5 C 151.418,118.775 151.751,125.108 151.5,131.5C 151.825,139.352 151.492,147.018 150.5,154.5C 150.5,147.5 150.5,140.5 150.5,133.5C 147.615,133.194 144.948,133.527 142.5,134.5C 140.178,133.198 138.845,131.198 138.5,128.5C 138.169,120.472 138.502,112.472 139.5,104.5C 143.203,107.216 146.87,109.883 150.5,112.5 Z"/></g>
<g><path style="opacity:1" fill="#433838" d="M 232.5,116.5 C 233.067,118.698 233.067,121.031 232.5,123.5C 231.167,123.5 229.833,123.5 228.5,123.5C 227.532,125.607 227.198,127.941 227.5,130.5C 222.821,130.666 218.155,130.499 213.5,130C 217.029,127.609 219.362,124.443 220.5,120.5C 221.429,119.685 222.429,118.852 223.5,118C 222.692,117.692 222.025,117.192 221.5,116.5C 223.699,113.945 226.366,112.279 229.5,111.5C 229.5,113.167 229.5,114.833 229.5,116.5C 230.5,116.5 231.5,116.5 232.5,116.5 Z"/></g>
<g><path style="opacity:1" fill="#73352d" d="M 234.5,114.5 C 235.919,115.451 237.585,115.784 239.5,115.5C 238.239,119.276 238.573,122.943 240.5,126.5C 240.5,128.167 240.5,129.833 240.5,131.5C 238.5,131.5 236.5,131.5 234.5,131.5C 234.5,129.167 234.5,126.833 234.5,124.5C 235.5,124.5 236.5,124.5 237.5,124.5C 237.5,122.167 237.5,119.833 237.5,117.5C 235.62,117.771 234.287,117.104 233.5,115.5C 233.5,114.833 233.833,114.5 234.5,114.5 Z"/></g>
<g><path style="opacity:1" fill="#352c2c" d="M 81.5,130.5 C 80.5987,129.71 79.9321,128.71 79.5,127.5C 91.989,126.505 104.656,126.171 117.5,126.5C 117.5,127.833 117.5,129.167 117.5,130.5C 105.5,130.5 93.5,130.5 81.5,130.5 Z"/></g>
<g><path style="opacity:1" fill="#3d5b61" d="M 124.5,131.5 C 124.768,129.901 124.434,128.568 123.5,127.5C 123.5,127.167 123.5,126.833 123.5,126.5C 124.29,125.391 124.79,124.058 125,122.5C 126.351,124.019 127.851,125.352 129.5,126.5C 130.452,128.045 130.785,129.712 130.5,131.5C 128.5,131.5 126.5,131.5 124.5,131.5 Z"/></g>
<g><path style="opacity:0.894" fill="#773b35" d="M 213.5,123.5 C 212.632,127.203 210.466,129.87 207,131.5C 205.97,131.164 205.47,130.497 205.5,129.5C 206.167,129.5 206.5,129.167 206.5,128.5C 207.167,128.5 207.5,128.167 207.5,127.5C 209.5,126.167 211.5,124.833 213.5,123.5 Z"/></g>
<g><path style="opacity:1" fill="#3a3030" d="M 240.5,126.5 C 253.677,126.171 266.677,126.505 279.5,127.5C 278.876,129.754 277.543,131.421 275.5,132.5C 261.833,132.5 248.167,132.5 234.5,132.5C 234.5,132.167 234.5,131.833 234.5,131.5C 236.5,131.5 238.5,131.5 240.5,131.5C 240.5,129.833 240.5,128.167 240.5,126.5 Z"/></g>
<g><path style="opacity:0.999" fill="#f92a03" d="M 195.5,126.5 C 195.586,127.496 195.252,128.329 194.5,129C 197.817,129.498 201.15,129.665 204.5,129.5C 201.674,132.496 199.007,135.663 196.5,139C 198.238,141.643 199.572,144.477 200.5,147.5C 200.674,149.861 201.007,152.194 201.5,154.5C 200.167,154.5 198.833,154.5 197.5,154.5C 197.128,150.703 195.794,147.37 193.5,144.5C 191.898,140.905 189.898,137.571 187.5,134.5C 188.167,134.5 188.5,134.167 188.5,133.5C 189.833,132.833 190.833,131.833 191.5,130.5C 192.833,129.167 194.167,127.833 195.5,126.5 Z"/></g>
<g><path style="opacity:1" fill="#352c2d" d="M 117.5,135.5 C 115.5,135.5 113.5,135.5 111.5,135.5C 100.848,136.196 90.181,136.53 79.5,136.5C 78.0937,136.027 77.427,135.027 77.5,133.5C 90.6562,132.504 103.99,132.171 117.5,132.5C 117.5,133.5 117.5,134.5 117.5,135.5 Z"/></g>
<g><path style="opacity:1" fill="#362b2b" d="M 152.5,132.5 C 164.678,132.172 176.678,132.505 188.5,133.5C 188.5,134.167 188.167,134.5 187.5,134.5C 176.086,136.446 164.419,137.112 152.5,136.5C 152.5,135.167 152.5,133.833 152.5,132.5 Z"/></g>
<g><path style="opacity:1" fill="#372b2b" d="M 234.5,132.5 C 248.167,132.5 261.833,132.5 275.5,132.5C 275.267,134.062 274.6,135.395 273.5,136.5C 262.154,136.514 250.821,136.181 239.5,135.5C 237.833,135.5 236.167,135.5 234.5,135.5C 234.5,134.5 234.5,133.5 234.5,132.5 Z"/></g>
<g><path style="opacity:1" fill="#3f3636" d="M 138.5,128.5 C 138.845,131.198 140.178,133.198 142.5,134.5C 143.14,143.266 143.807,151.932 144.5,160.5C 144.5,163.5 144.5,166.5 144.5,169.5C 143.676,172.764 143.342,176.098 143.5,179.5C 139.167,179.5 134.833,179.5 130.5,179.5C 130.5,178.167 130.5,176.833 130.5,175.5C 130.5,170.167 130.5,164.833 130.5,159.5C 128.5,159.5 126.5,159.5 124.5,159.5C 124.5,150.167 124.5,140.833 124.5,131.5C 126.5,131.5 128.5,131.5 130.5,131.5C 130.785,129.712 130.452,128.045 129.5,126.5C 127.851,125.352 126.351,124.019 125,122.5C 124.79,124.058 124.29,125.391 123.5,126.5C 123.5,126.167 123.5,125.833 123.5,125.5C 123.784,122.223 123.451,119.057 122.5,116C 123.025,115.308 123.692,114.808 124.5,114.5C 128.827,119.494 133.494,124.161 138.5,128.5 Z"/></g>
<g><path style="opacity:1" fill="#45f6f7" d="M 150.5,154.5 C 150.5,155.167 150.5,155.833 150.5,156.5C 148.246,157.415 146.246,158.748 144.5,160.5C 143.807,151.932 143.14,143.266 142.5,134.5C 144.948,133.527 147.615,133.194 150.5,133.5C 150.5,140.5 150.5,147.5 150.5,154.5 Z"/></g>
<g><path style="opacity:1" fill="#423635" d="M 220.5,120.5 C 219.362,124.443 217.029,127.609 213.5,130C 218.155,130.499 222.821,130.666 227.5,130.5C 227.198,127.941 227.532,125.607 228.5,123.5C 228.5,145.167 228.5,166.833 228.5,188.5C 227.596,187.791 227.263,186.791 227.5,185.5C 227.5,181.5 227.5,177.5 227.5,173.5C 227.5,168.167 227.5,162.833 227.5,157.5C 221.074,156.88 215.074,157.547 209.5,159.5C 209.167,159.5 208.833,159.5 208.5,159.5C 208.66,157.801 208.494,156.134 208,154.5C 206.871,156.141 205.371,157.141 203.5,157.5C 202.993,153.917 201.993,150.583 200.5,147.5C 199.572,144.477 198.238,141.643 196.5,139C 199.007,135.663 201.674,132.496 204.5,129.5C 204.833,129.5 205.167,129.5 205.5,129.5C 205.47,130.497 205.97,131.164 207,131.5C 210.466,129.87 212.632,127.203 213.5,123.5C 215.136,120.507 217.469,119.507 220.5,120.5 Z"/></g>
<g><path style="opacity:0.92" fill="#f12a05" d="M 233.5,115.5 C 234.287,117.104 235.62,117.771 237.5,117.5C 237.5,119.833 237.5,122.167 237.5,124.5C 236.5,124.5 235.5,124.5 234.5,124.5C 234.5,126.833 234.5,129.167 234.5,131.5C 234.5,131.833 234.5,132.167 234.5,132.5C 234.5,133.5 234.5,134.5 234.5,135.5C 236.167,135.5 237.833,135.5 239.5,135.5C 239.5,136.167 239.833,136.5 240.5,136.5C 240.5,137.5 240.5,138.5 240.5,139.5C 239.596,140.209 239.263,141.209 239.5,142.5C 236.167,142.5 232.833,142.5 229.5,142.5C 229.5,150.5 229.5,158.5 229.5,166.5C 229.5,173.833 229.5,181.167 229.5,188.5C 230.791,188.263 231.791,188.596 232.5,189.5C 230.901,189.768 229.568,189.434 228.5,188.5C 228.5,166.833 228.5,145.167 228.5,123.5C 229.833,123.5 231.167,123.5 232.5,123.5C 233.067,121.031 233.067,118.698 232.5,116.5C 232.5,115.833 232.833,115.5 233.5,115.5 Z"/></g>
<g><path style="opacity:0.914" fill="#49fcfc" d="M 73.5,129.5 C 74.7281,130.306 75.7281,131.306 76.5,132.5C 76.5,133.167 76.8333,133.5 77.5,133.5C 77.427,135.027 78.0937,136.027 79.5,136.5C 81.7788,142.941 85.9455,147.607 92,150.5C 93.1667,152.333 94.3333,154.167 95.5,156C 94.5842,156.278 93.9175,156.778 93.5,157.5C 93.5,157.833 93.5,158.167 93.5,158.5C 89.1163,156.825 85.1163,157.158 81.5,159.5C 74.7809,150.109 68.4476,140.442 62.5,130.5C 66.3714,130.815 70.0381,130.482 73.5,129.5 Z"/></g>
<g><path style="opacity:0.999" fill="#403838" d="M 111.5,135.5 C 111.5,135.833 111.5,136.167 111.5,136.5C 109.076,136.192 106.743,136.526 104.5,137.5C 106.506,140.829 108.839,143.829 111.5,146.5C 112.332,150.501 113.999,154.168 116.5,157.5C 108.833,157.5 101.167,157.5 93.5,157.5C 93.9175,156.778 94.5842,156.278 95.5,156C 94.3333,154.167 93.1667,152.333 92,150.5C 85.9455,147.607 81.7788,142.941 79.5,136.5C 90.181,136.53 100.848,136.196 111.5,135.5 Z"/></g>
<g><path style="opacity:0.999" fill="#423737" d="M 239.5,135.5 C 250.821,136.181 262.154,136.514 273.5,136.5C 271.075,139.589 269.075,142.922 267.5,146.5C 265.833,148.5 264.167,150.5 262.5,152.5C 254.932,151.188 247.265,151.188 239.5,152.5C 239.833,151.167 240.167,149.833 240.5,148.5C 243.021,144.646 245.688,140.812 248.5,137C 245.854,136.503 243.187,136.336 240.5,136.5C 239.833,136.5 239.5,136.167 239.5,135.5 Z"/></g>
<g><path style="opacity:1" fill="#3f3636" d="M 151.5,131.5 C 151.833,131.5 152.167,131.5 152.5,131.5C 152.5,131.833 152.5,132.167 152.5,132.5C 152.5,133.833 152.5,135.167 152.5,136.5C 164.419,137.112 176.086,136.446 187.5,134.5C 189.898,137.571 191.898,140.905 193.5,144.5C 184.833,145.167 176.167,145.833 167.5,146.5C 166.5,146.5 165.5,146.5 164.5,146.5C 164.599,149.237 164.265,151.904 163.5,154.5C 162.306,155.272 161.306,156.272 160.5,157.5C 159.167,158.5 157.833,159.5 156.5,160.5C 154.5,160.5 152.5,160.5 150.5,160.5C 150.5,159.167 150.5,157.833 150.5,156.5C 150.5,155.833 150.5,155.167 150.5,154.5C 151.492,147.018 151.825,139.352 151.5,131.5 Z"/></g>
<g><path style="opacity:0.966" fill="#42fbfb" d="M 118.5,121.5 C 118.833,121.5 119.167,121.5 119.5,121.5C 120.5,123.167 121.833,124.5 123.5,125.5C 123.5,125.833 123.5,126.167 123.5,126.5C 123.5,126.833 123.5,127.167 123.5,127.5C 123.5,150.833 123.5,174.167 123.5,197.5C 119.5,197.5 115.5,197.5 111.5,197.5C 111.5,193.833 111.5,190.167 111.5,186.5C 113.887,188.913 116.054,191.58 118,194.5C 118.667,182.833 118.667,171.167 118,159.5C 117.722,158.584 117.222,157.918 116.5,157.5C 113.999,154.168 112.332,150.501 111.5,146.5C 111.5,143.167 111.5,139.833 111.5,136.5C 111.5,136.167 111.5,135.833 111.5,135.5C 113.5,135.5 115.5,135.5 117.5,135.5C 118.486,131.03 118.819,126.363 118.5,121.5 Z"/></g>
<g><path style="opacity:1" fill="#3b3131" d="M 193.5,144.5 C 195.794,147.37 197.128,150.703 197.5,154.5C 197.5,158.5 197.5,162.5 197.5,166.5C 193.833,166.5 190.167,166.5 186.5,166.5C 185.784,164.444 185.117,162.277 184.5,160C 182.527,159.505 180.527,159.338 178.5,159.5C 177.364,153.03 173.697,148.697 167.5,146.5C 176.167,145.833 184.833,145.167 193.5,144.5 Z"/></g>
<g><path style="opacity:1" fill="#f42904" d="M 240.5,139.5 C 240.5,142.5 240.5,145.5 240.5,148.5C 240.167,149.833 239.833,151.167 239.5,152.5C 237.808,154.205 236.475,156.205 235.5,158.5C 234.509,164.979 234.176,171.646 234.5,178.5C 234.5,182.167 234.5,185.833 234.5,189.5C 233.508,182.018 233.175,174.352 233.5,166.5C 232.167,166.5 230.833,166.5 229.5,166.5C 229.5,158.5 229.5,150.5 229.5,142.5C 232.833,142.5 236.167,142.5 239.5,142.5C 239.263,141.209 239.596,140.209 240.5,139.5 Z"/></g>
<g><path style="opacity:0.932" fill="#fb2f01" d="M 267.5,146.5 C 270.337,148.402 273.671,149.069 277.5,148.5C 274.314,154.218 270.648,159.552 266.5,164.5C 262.935,163.213 259.268,163.213 255.5,164.5C 255.5,164.167 255.5,163.833 255.5,163.5C 258.083,160.003 260.416,156.336 262.5,152.5C 264.167,150.5 265.833,148.5 267.5,146.5 Z"/></g>
<g><path style="opacity:1" fill="#d72d0f" d="M 200.5,147.5 C 201.993,150.583 202.993,153.917 203.5,157.5C 201.833,157.5 200.167,157.5 198.5,157.5C 198.824,164.354 198.491,171.021 197.5,177.5C 197.5,173.833 197.5,170.167 197.5,166.5C 197.5,162.5 197.5,158.5 197.5,154.5C 198.833,154.5 200.167,154.5 201.5,154.5C 201.007,152.194 200.674,149.861 200.5,147.5 Z"/></g>
<g><path style="opacity:1" fill="#3f3434" d="M 262.5,152.5 C 260.416,156.336 258.083,160.003 255.5,163.5C 250.5,163.5 245.5,163.5 240.5,163.5C 240.5,162.167 240.5,160.833 240.5,159.5C 238.585,159.784 236.919,159.451 235.5,158.5C 236.475,156.205 237.808,154.205 239.5,152.5C 247.265,151.188 254.932,151.188 262.5,152.5 Z"/></g>
<g><path style="opacity:1" fill="#392f2f" d="M 227.5,173.5 C 223.5,173.5 219.5,173.5 215.5,173.5C 215.5,168.833 215.5,164.167 215.5,159.5C 213.5,159.5 211.5,159.5 209.5,159.5C 215.074,157.547 221.074,156.88 227.5,157.5C 227.5,162.833 227.5,168.167 227.5,173.5 Z"/></g>
<g><path style="opacity:0.976" fill="#a3f6f6" d="M 167.5,146.5 C 173.697,148.697 177.364,153.03 178.5,159.5C 180.102,165.713 180.768,172.046 180.5,178.5C 180.328,179.492 180.662,180.158 181.5,180.5C 181.5,181.167 181.833,181.5 182.5,181.5C 181.665,182.943 180.332,183.943 178.5,184.5C 175.91,190.691 172.577,196.358 168.5,201.5C 168.884,199.071 169.551,196.737 170.5,194.5C 168.784,194.371 167.117,194.038 165.5,193.5C 165.953,192.542 166.619,191.708 167.5,191C 166.833,190.667 166.167,190.333 165.5,190C 167.907,187.817 170.24,185.65 172.5,183.5C 174.483,183.843 175.817,183.176 176.5,181.5C 177.043,181.44 177.376,181.107 177.5,180.5C 176.675,179.614 175.675,179.281 174.5,179.5C 174.822,173.642 174.489,167.975 173.5,162.5C 173.762,161.022 173.429,159.689 172.5,158.5C 170.736,160.278 168.736,161.611 166.5,162.5C 165.871,159.603 164.871,156.936 163.5,154.5C 164.265,151.904 164.599,149.237 164.5,146.5C 165.5,146.5 166.5,146.5 167.5,146.5 Z"/></g>
<g><path style="opacity:1" fill="#3c3535" d="M 93.5,157.5 C 101.167,157.5 108.833,157.5 116.5,157.5C 117.222,157.918 117.722,158.584 118,159.5C 118.667,171.167 118.667,182.833 118,194.5C 116.054,191.58 113.887,188.913 111.5,186.5C 109.926,185.016 108.593,183.349 107.5,181.5C 107.5,180.833 107.5,180.167 107.5,179.5C 109.042,178.837 110.709,178.17 112.5,177.5C 109.086,171.255 105.086,165.421 100.5,160C 98.5273,159.505 96.5273,159.338 94.5,159.5C 93.8333,159.5 93.5,159.167 93.5,158.5C 93.5,158.167 93.5,157.833 93.5,157.5 Z"/></g>
<g><path style="opacity:0.35" fill="#8a7d7d" d="M 150.5,160.5 C 152.5,160.5 154.5,160.5 156.5,160.5C 153.859,162.804 151.192,165.138 148.5,167.5C 149.449,165.263 150.116,162.929 150.5,160.5 Z"/></g>
<g><path style="opacity:0.915" fill="#49fdfe" d="M 93.5,158.5 C 93.5,159.167 93.8333,159.5 94.5,159.5C 98.8468,166.203 103.18,172.87 107.5,179.5C 107.5,180.167 107.5,180.833 107.5,181.5C 107.827,186.544 107.494,191.544 106.5,196.5C 97.7495,184.422 89.4162,172.089 81.5,159.5C 85.1163,157.158 89.1163,156.825 93.5,158.5 Z"/></g>
<g><path style="opacity:0.975" fill="#58f9f9" d="M 160.5,157.5 C 161.117,157.611 161.617,157.944 162,158.5C 162.495,160.473 162.662,162.473 162.5,164.5C 162.719,165.675 162.386,166.675 161.5,167.5C 156.91,170.947 152.577,174.614 148.5,178.5C 147.185,179.476 145.852,180.476 144.5,181.5C 143.702,181.043 143.369,180.376 143.5,179.5C 143.342,176.098 143.676,172.764 144.5,169.5C 146.062,169.267 147.395,168.6 148.5,167.5C 151.192,165.138 153.859,162.804 156.5,160.5C 157.833,159.5 159.167,158.5 160.5,157.5 Z"/></g>
<g><path style="opacity:0.941" fill="#fd2e01" d="M 266.5,164.5 C 261.328,173.517 255.661,182.183 249.5,190.5C 247.958,189.699 246.292,189.366 244.5,189.5C 244.5,187.167 244.5,184.833 244.5,182.5C 247.148,175.869 250.815,169.869 255.5,164.5C 259.268,163.213 262.935,163.213 266.5,164.5 Z"/></g>
<g><path style="opacity:1" fill="#753129" d="M 208.5,159.5 C 208.833,159.5 209.167,159.5 209.5,159.5C 211.5,159.5 213.5,159.5 215.5,159.5C 215.5,164.167 215.5,168.833 215.5,173.5C 214.549,174.919 214.216,176.585 214.5,178.5C 212.5,178.5 210.5,178.5 208.5,178.5C 208.5,176.833 208.5,175.167 208.5,173.5C 208.5,168.833 208.5,164.167 208.5,159.5 Z"/></g>
<g><path style="opacity:1" fill="#3e3433" d="M 186.5,166.5 C 190.167,166.5 193.833,166.5 197.5,166.5C 197.5,170.167 197.5,173.833 197.5,177.5C 197.5,177.833 197.5,178.167 197.5,178.5C 195.564,189.709 190.897,199.709 183.5,208.5C 180.833,210.5 178.5,212.833 176.5,215.5C 174.46,217.177 172.46,218.844 170.5,220.5C 168.973,220.427 167.973,221.094 167.5,222.5C 166.833,222.5 166.167,222.5 165.5,222.5C 159.974,222.821 154.64,222.488 149.5,221.5C 149.433,220.041 149.766,218.708 150.5,217.5C 151.391,216.89 152.391,216.557 153.5,216.5C 155.068,217.473 156.735,217.64 158.5,217C 163.601,214.067 167.935,210.234 171.5,205.5C 170.051,204.828 168.718,204.161 167.5,203.5C 167.833,202.833 168.167,202.167 168.5,201.5C 172.577,196.358 175.91,190.691 178.5,184.5C 180.332,183.943 181.665,182.943 182.5,181.5C 181.833,181.5 181.5,181.167 181.5,180.5C 180.662,180.158 180.328,179.492 180.5,178.5C 182.5,178.5 184.5,178.5 186.5,178.5C 186.5,174.5 186.5,170.5 186.5,166.5 Z"/></g>
<g><path style="opacity:1" fill="#416067" d="M 173.5,162.5 C 173.5,162.833 173.5,163.167 173.5,163.5C 166.898,168.095 160.565,173.095 154.5,178.5C 152.5,178.5 150.5,178.5 148.5,178.5C 152.577,174.614 156.91,170.947 161.5,167.5C 162.386,166.675 162.719,165.675 162.5,164.5C 164.062,164.267 165.395,163.6 166.5,162.5C 168.736,161.611 170.736,160.278 172.5,158.5C 173.429,159.689 173.762,161.022 173.5,162.5 Z"/></g>
<g><path style="opacity:1" fill="#3a3131" d="M 173.5,163.5 C 173.5,168.5 173.5,173.5 173.5,178.5C 167.068,179.807 160.734,179.807 154.5,178.5C 160.565,173.095 166.898,168.095 173.5,163.5 Z"/></g>
<g><path style="opacity:1" fill="#fe2600" d="M 229.5,166.5 C 230.833,166.5 232.167,166.5 233.5,166.5C 233.175,174.352 233.508,182.018 234.5,189.5C 235.5,189.5 236.5,189.5 237.5,189.5C 237.215,191.288 237.548,192.955 238.5,194.5C 239.183,194.137 239.85,193.804 240.5,193.5C 240.5,194.833 240.5,196.167 240.5,197.5C 236.366,198.807 236.033,199.807 239.5,200.5C 239.5,201.5 239.5,202.5 239.5,203.5C 236.167,203.5 232.833,203.5 229.5,203.5C 229.5,201.167 229.5,198.833 229.5,196.5C 230.791,196.737 231.791,196.404 232.5,195.5C 232.5,193.5 232.5,191.5 232.5,189.5C 231.791,188.596 230.791,188.263 229.5,188.5C 229.5,181.167 229.5,173.833 229.5,166.5 Z"/></g>
<g><path style="opacity:1" fill="#6b2f27" d="M 235.5,158.5 C 236.919,159.451 238.585,159.784 240.5,159.5C 240.5,160.833 240.5,162.167 240.5,163.5C 240.5,168.5 240.5,173.5 240.5,178.5C 238.5,178.5 236.5,178.5 234.5,178.5C 234.176,171.646 234.509,164.979 235.5,158.5 Z"/></g>
<g><path style="opacity:1" fill="#413230" d="M 240.5,163.5 C 245.5,163.5 250.5,163.5 255.5,163.5C 255.5,163.833 255.5,164.167 255.5,164.5C 250.815,169.869 247.148,175.869 244.5,182.5C 241.242,185.369 239.909,189.036 240.5,193.5C 239.85,193.804 239.183,194.137 238.5,194.5C 237.548,192.955 237.215,191.288 237.5,189.5C 236.5,189.5 235.5,189.5 234.5,189.5C 234.5,185.833 234.5,182.167 234.5,178.5C 236.5,178.5 238.5,178.5 240.5,178.5C 240.5,173.5 240.5,168.5 240.5,163.5 Z"/></g>
<g><path style="opacity:1" fill="#516267" d="M 178.5,159.5 C 180.527,159.338 182.527,159.505 184.5,160C 185.117,162.277 185.784,164.444 186.5,166.5C 186.5,170.5 186.5,174.5 186.5,178.5C 184.5,178.5 182.5,178.5 180.5,178.5C 180.768,172.046 180.102,165.713 178.5,159.5 Z"/></g>
<g><path style="opacity:1" fill="#3d6b71" d="M 123.5,127.5 C 124.434,128.568 124.768,129.901 124.5,131.5C 124.5,140.833 124.5,150.167 124.5,159.5C 126.5,159.5 128.5,159.5 130.5,159.5C 130.5,164.833 130.5,170.167 130.5,175.5C 129.596,176.209 129.263,177.209 129.5,178.5C 127.833,178.5 126.167,178.5 124.5,178.5C 124.5,179.833 124.5,181.167 124.5,182.5C 124.5,189.5 124.5,196.5 124.5,203.5C 124.5,203.833 124.5,204.167 124.5,204.5C 124.815,208.371 124.482,212.038 123.5,215.5C 123.5,212.833 123.5,210.167 123.5,207.5C 123.5,204.167 123.5,200.833 123.5,197.5C 123.5,174.167 123.5,150.833 123.5,127.5 Z"/></g>
<g><path style="opacity:1" fill="#3d676e" d="M 94.5,159.5 C 96.5273,159.338 98.5273,159.505 100.5,160C 105.086,165.421 109.086,171.255 112.5,177.5C 110.709,178.17 109.042,178.837 107.5,179.5C 103.18,172.87 98.8468,166.203 94.5,159.5 Z"/></g>
<g><path style="opacity:1" fill="#fe2700" d="M 208.5,159.5 C 208.5,164.167 208.5,168.833 208.5,173.5C 207.539,175.265 207.205,177.265 207.5,179.5C 203.958,179.813 200.625,179.479 197.5,178.5C 197.5,178.167 197.5,177.833 197.5,177.5C 198.491,171.021 198.824,164.354 198.5,157.5C 200.167,157.5 201.833,157.5 203.5,157.5C 205.371,157.141 206.871,156.141 208,154.5C 208.494,156.134 208.66,157.801 208.5,159.5 Z"/></g>
<g><path style="opacity:1" fill="#3f3434" d="M 215.5,173.5 C 219.5,173.5 223.5,173.5 227.5,173.5C 227.5,177.5 227.5,181.5 227.5,185.5C 221.167,185.5 214.833,185.5 208.5,185.5C 208.5,184.5 208.5,183.5 208.5,182.5C 208.5,181.167 208.5,179.833 208.5,178.5C 210.5,178.5 212.5,178.5 214.5,178.5C 214.216,176.585 214.549,174.919 215.5,173.5 Z"/></g>
<g><path style="opacity:1" fill="#7aa1a2" d="M 173.5,162.5 C 174.489,167.975 174.822,173.642 174.5,179.5C 175.675,179.281 176.675,179.614 177.5,180.5C 177.376,181.107 177.043,181.44 176.5,181.5C 175.1,180.9 174.1,179.9 173.5,178.5C 173.5,173.5 173.5,168.5 173.5,163.5C 173.5,163.167 173.5,162.833 173.5,162.5 Z"/></g>
<g><path style="opacity:1" fill="#433c3d" d="M 130.5,175.5 C 130.5,176.833 130.5,178.167 130.5,179.5C 134.833,179.5 139.167,179.5 143.5,179.5C 143.369,180.376 143.702,181.043 144.5,181.5C 145.852,180.476 147.185,179.476 148.5,178.5C 150.5,178.5 152.5,178.5 154.5,178.5C 160.734,179.807 167.068,179.807 173.5,178.5C 174.1,179.9 175.1,180.9 176.5,181.5C 175.817,183.176 174.483,183.843 172.5,183.5C 156.675,182.504 140.675,182.17 124.5,182.5C 124.5,181.167 124.5,179.833 124.5,178.5C 126.167,178.5 127.833,178.5 129.5,178.5C 129.263,177.209 129.596,176.209 130.5,175.5 Z"/></g>
<g><path style="opacity:1" fill="#3a3131" d="M 124.5,182.5 C 140.675,182.17 156.675,182.504 172.5,183.5C 170.24,185.65 167.907,187.817 165.5,190C 166.167,190.333 166.833,190.667 167.5,191C 166.619,191.708 165.953,192.542 165.5,193.5C 162.188,193.149 159.855,194.482 158.5,197.5C 157.833,197.5 157.5,197.833 157.5,198.5C 156.833,198.5 156.5,198.833 156.5,199.5C 154.228,200.441 152.228,201.774 150.5,203.5C 141.833,203.5 133.167,203.5 124.5,203.5C 124.5,196.5 124.5,189.5 124.5,182.5 Z"/></g>
<g><path style="opacity:1" fill="#fc2f03" d="M 208.5,173.5 C 208.5,175.167 208.5,176.833 208.5,178.5C 208.5,179.833 208.5,181.167 208.5,182.5C 207.539,184.265 207.205,186.265 207.5,188.5C 205.064,195.59 201.397,201.923 196.5,207.5C 195.5,207.833 194.833,208.5 194.5,209.5C 191.626,209.451 188.792,209.784 186,210.5C 184.624,210.316 183.791,209.649 183.5,208.5C 190.897,199.709 195.564,189.709 197.5,178.5C 200.625,179.479 203.958,179.813 207.5,179.5C 207.205,177.265 207.539,175.265 208.5,173.5 Z"/></g>
<g><path style="opacity:1" fill="#433838" d="M 208.5,182.5 C 208.5,183.5 208.5,184.5 208.5,185.5C 214.833,185.5 221.167,185.5 227.5,185.5C 227.263,186.791 227.596,187.791 228.5,188.5C 229.568,189.434 230.901,189.768 232.5,189.5C 232.5,191.5 232.5,193.5 232.5,195.5C 231.167,195.5 229.833,195.5 228.5,195.5C 228.274,200.562 228.608,205.562 229.5,210.5C 229.5,211.167 229.5,211.833 229.5,212.5C 227.186,210.523 224.853,208.523 222.5,206.5C 221.482,207.193 220.482,207.859 219.5,208.5C 218.078,207.075 216.411,206.075 214.5,205.5C 208.12,201.612 205.787,195.946 207.5,188.5C 207.205,186.265 207.539,184.265 208.5,182.5 Z"/></g>
<g><path style="opacity:0.592" fill="#ff8c6d" d="M 244.5,189.5 C 246.292,189.366 247.958,189.699 249.5,190.5C 245.962,198.718 244.295,198.385 244.5,189.5 Z"/></g>
<g><path style="opacity:0.91" fill="#4cfffe" d="M 111.5,197.5 C 115.5,197.5 119.5,197.5 123.5,197.5C 123.5,200.833 123.5,204.167 123.5,207.5C 119.774,207.177 116.107,207.511 112.5,208.5C 122.107,211.795 121.773,213.128 111.5,212.5C 111.5,207.5 111.5,202.5 111.5,197.5 Z"/></g>
<g><path style="opacity:0.945" fill="#65fcfc" d="M 165.5,193.5 C 167.117,194.038 168.784,194.371 170.5,194.5C 169.551,196.737 168.884,199.071 168.5,201.5C 168.167,202.167 167.833,202.833 167.5,203.5C 163.461,208.54 158.794,212.873 153.5,216.5C 152.391,216.557 151.391,216.89 150.5,217.5C 148.246,216.585 146.246,215.252 144.5,213.5C 149.242,209.428 153.242,204.761 156.5,199.5C 157.167,199.5 157.5,199.167 157.5,198.5C 158.167,198.5 158.5,198.167 158.5,197.5C 159.855,194.482 162.188,193.149 165.5,193.5 Z"/></g>
<g><path style="opacity:0.999" fill="#403838" d="M 124.5,204.5 C 124.5,204.167 124.5,203.833 124.5,203.5C 133.167,203.5 141.833,203.5 150.5,203.5C 145.833,207.5 141.167,211.5 136.5,215.5C 133.31,215.687 131.31,217.354 130.5,220.5C 129.833,220.5 129.5,220.833 129.5,221.5C 127.825,223.002 125.992,224.335 124,225.5C 123.505,223.527 123.338,221.527 123.5,219.5C 125.736,218.611 127.736,217.278 129.5,215.5C 130.489,211.893 130.823,208.226 130.5,204.5C 128.5,204.5 126.5,204.5 124.5,204.5 Z"/></g>
<g><path style="opacity:0.004" fill="#ffd8d1" d="M 196.5,207.5 C 196.573,209.027 195.906,210.027 194.5,210.5C 194.5,210.167 194.5,209.833 194.5,209.5C 194.833,208.5 195.5,207.833 196.5,207.5 Z"/></g>
<g><path style="opacity:1" fill="#416269" d="M 167.5,203.5 C 168.718,204.161 170.051,204.828 171.5,205.5C 167.935,210.234 163.601,214.067 158.5,217C 156.735,217.64 155.068,217.473 153.5,216.5C 158.794,212.873 163.461,208.54 167.5,203.5 Z"/></g>
<g><path style="opacity:0.141" fill="#fc3604" d="M 232.5,195.5 C 231.791,196.404 230.791,196.737 229.5,196.5C 229.5,198.833 229.5,201.167 229.5,203.5C 232.833,203.5 236.167,203.5 239.5,203.5C 239.5,202.5 239.5,201.5 239.5,200.5C 236.033,199.807 236.366,198.807 240.5,197.5C 240.831,204.863 240.497,212.197 239.5,219.5C 236.147,216.478 232.813,213.478 229.5,210.5C 228.608,205.562 228.274,200.562 228.5,195.5C 229.833,195.5 231.167,195.5 232.5,195.5 Z"/></g>
<g><path style="opacity:1" fill="#76332b" d="M 229.5,212.5 C 229.5,214.167 229.5,215.833 229.5,217.5C 225.564,215.234 222.231,212.234 219.5,208.5C 220.482,207.859 221.482,207.193 222.5,206.5C 224.853,208.523 227.186,210.523 229.5,212.5 Z"/></g>
<g><path style="opacity:0.996" fill="#585050" d="M 211.5,209.5 C 211.5,210.5 211.5,211.5 211.5,212.5C 209.801,212.34 208.134,212.506 206.5,213C 203.123,216.931 200.123,221.098 197.5,225.5C 194.941,225.802 192.607,225.468 190.5,224.5C 195.035,217.941 199.701,211.441 204.5,205C 205.167,204.333 205.833,204.333 206.5,205C 208.037,206.707 209.704,208.207 211.5,209.5 Z"/></g>
<g><path style="opacity:0.754" fill="#49fffe" d="M 123.5,207.5 C 123.5,210.167 123.5,212.833 123.5,215.5C 123.5,215.833 123.5,216.167 123.5,216.5C 120.048,219.731 116.381,222.731 112.5,225.5C 111.508,221.217 111.174,216.884 111.5,212.5C 121.773,213.128 122.107,211.795 112.5,208.5C 116.107,207.511 119.774,207.177 123.5,207.5 Z"/></g>
<g><path style="opacity:1" fill="#3d5f67" d="M 124.5,204.5 C 126.5,204.5 128.5,204.5 130.5,204.5C 130.823,208.226 130.489,211.893 129.5,215.5C 127.736,217.278 125.736,218.611 123.5,219.5C 123.5,218.5 123.5,217.5 123.5,216.5C 123.5,216.167 123.5,215.833 123.5,215.5C 124.482,212.038 124.815,208.371 124.5,204.5 Z"/></g>
<g><path style="opacity:1" fill="#f52e08" d="M 214.5,205.5 C 216.411,206.075 218.078,207.075 219.5,208.5C 222.231,212.234 225.564,215.234 229.5,217.5C 230.853,219.128 230.519,220.462 228.5,221.5C 223.969,221.15 219.636,221.817 215.5,223.5C 216.614,222.115 217.614,220.615 218.5,219C 216.297,216.628 213.963,214.461 211.5,212.5C 211.5,211.5 211.5,210.5 211.5,209.5C 212.488,208.205 213.488,206.872 214.5,205.5 Z"/></g>
<g><path style="opacity:1" fill="#3f3535" d="M 211.5,212.5 C 213.963,214.461 216.297,216.628 218.5,219C 217.614,220.615 216.614,222.115 215.5,223.5C 215.167,224.5 214.5,225.167 213.5,225.5C 208.167,225.5 202.833,225.5 197.5,225.5C 200.123,221.098 203.123,216.931 206.5,213C 208.134,212.506 209.801,212.34 211.5,212.5 Z"/></g>
<g><path style="opacity:0.975" fill="#fd4413" d="M 183.5,208.5 C 183.791,209.649 184.624,210.316 186,210.5C 188.792,209.784 191.626,209.451 194.5,209.5C 194.5,209.833 194.5,210.167 194.5,210.5C 189.103,216.372 182.77,221.039 175.5,224.5C 174.371,223.53 173.371,222.364 172.5,221C 174.438,219.569 175.771,217.735 176.5,215.5C 178.5,212.833 180.833,210.5 183.5,208.5 Z"/></g>
<g><path style="opacity:1" fill="#406870" d="M 144.5,213.5 C 146.246,215.252 148.246,216.585 150.5,217.5C 149.766,218.708 149.433,220.041 149.5,221.5C 148.566,222.568 148.232,223.901 148.5,225.5C 146.5,225.5 144.5,225.5 142.5,225.5C 142.541,221.384 143.207,217.384 144.5,213.5 Z"/></g>
<g><path style="opacity:1" fill="#4efcfd" d="M 144.5,213.5 C 143.207,217.384 142.541,221.384 142.5,225.5C 141.211,228.76 139.878,232.094 138.5,235.5C 134.937,236.266 131.437,237.266 128,238.5C 127.167,238.167 126.333,237.833 125.5,237.5C 127.452,232.313 128.785,226.98 129.5,221.5C 130.167,221.5 130.5,221.167 130.5,220.5C 131.31,217.354 133.31,215.687 136.5,215.5C 137.15,215.804 137.817,216.137 138.5,216.5C 140.534,215.441 142.534,214.441 144.5,213.5 Z"/></g>
<g><path style="opacity:0.824" fill="#fa9677" d="M 170.5,220.5 C 168.599,224.152 167.599,228.152 167.5,232.5C 166.791,233.404 165.791,233.737 164.5,233.5C 164.195,231.081 164.195,228.414 164.5,225.5C 167.534,225.817 168.534,224.817 167.5,222.5C 167.973,221.094 168.973,220.427 170.5,220.5 Z"/></g>
<g><path style="opacity:0.387" fill="#fd683a" d="M 176.5,215.5 C 175.771,217.735 174.438,219.569 172.5,221C 173.371,222.364 174.371,223.53 175.5,224.5C 174.4,225.558 173.066,226.392 171.5,227C 172.5,228 173.5,229 174.5,230C 172.431,231.523 170.097,232.357 167.5,232.5C 167.599,228.152 168.599,224.152 170.5,220.5C 172.46,218.844 174.46,217.177 176.5,215.5 Z"/></g>
<g><path style="opacity:0.991" fill="#433a39" d="M 149.5,221.5 C 154.64,222.488 159.974,222.821 165.5,222.5C 164.19,224.148 162.857,225.814 161.5,227.5C 162.782,229.899 162.115,231.566 159.5,232.5C 152.791,234.291 146.125,236.291 139.5,238.5C 137.197,238.124 136.863,237.124 138.5,235.5C 139.878,232.094 141.211,228.76 142.5,225.5C 144.5,225.5 146.5,225.5 148.5,225.5C 148.232,223.901 148.566,222.568 149.5,221.5 Z"/></g>
<g><path style="opacity:0.996" fill="#3b3030" d="M 190.5,224.5 C 192.607,225.468 194.941,225.802 197.5,225.5C 202.833,225.5 208.167,225.5 213.5,225.5C 212.241,229.025 210.241,232.025 207.5,234.5C 199.757,235.13 192.424,234.463 185.5,232.5C 186.669,229.489 188.336,226.822 190.5,224.5 Z"/></g>
<g><path style="opacity:1" fill="#fc2d01" d="M 228.5,221.5 C 220.661,234.517 212.327,247.184 203.5,259.5C 200.482,259.665 197.482,259.498 194.5,259C 193.829,258.014 193.829,256.847 194.5,255.5C 194.5,254.833 194.5,254.167 194.5,253.5C 196.262,252.738 197.262,251.404 197.5,249.5C 198.906,249.027 199.573,248.027 199.5,246.5C 200.906,246.027 201.573,245.027 201.5,243.5C 204.241,241.025 206.241,238.025 207.5,234.5C 210.241,232.025 212.241,229.025 213.5,225.5C 214.5,225.167 215.167,224.5 215.5,223.5C 219.636,221.817 223.969,221.15 228.5,221.5 Z"/></g>
<g><path style="opacity:0.565" fill="#fbcebc" d="M 165.5,222.5 C 166.167,222.5 166.833,222.5 167.5,222.5C 168.534,224.817 167.534,225.817 164.5,225.5C 164.195,228.414 164.195,231.081 164.5,233.5C 163.903,234.139 163.07,234.472 162,234.5C 160.624,234.316 159.791,233.649 159.5,232.5C 162.115,231.566 162.782,229.899 161.5,227.5C 162.857,225.814 164.19,224.148 165.5,222.5 Z"/></g>
<g><path style="opacity:0.997" fill="#443838" d="M 185.5,232.5 C 192.424,234.463 199.757,235.13 207.5,234.5C 206.241,238.025 204.241,241.025 201.5,243.5C 193.833,243.5 186.167,243.5 178.5,243.5C 180.081,241.858 180.747,239.858 180.5,237.5C 181.939,235.64 183.605,233.973 185.5,232.5 Z"/></g>
<g><path style="opacity:0.678" fill="#f47d5c" d="M 173.5,236.5 C 172.046,239.4 173.046,240.733 176.5,240.5C 176.567,241.959 176.234,243.292 175.5,244.5C 172.757,242.761 170.757,240.427 169.5,237.5C 170.833,237.167 172.167,236.833 173.5,236.5 Z"/></g>
<g><path style="opacity:0.953" fill="#fb5221" d="M 180.5,237.5 C 180.747,239.858 180.081,241.858 178.5,243.5C 177.849,244.091 177.182,244.757 176.5,245.5C 175.893,245.376 175.56,245.043 175.5,244.5C 176.234,243.292 176.567,241.959 176.5,240.5C 173.046,240.733 172.046,239.4 173.5,236.5C 176.216,234.914 178.55,235.247 180.5,237.5 Z"/></g>
<g><path style="opacity:0.842" fill="#4afcfc" d="M 158.5,237.5 C 154.512,240.342 150.012,242.342 145,243.5C 143.317,244.176 143.15,245.176 144.5,246.5C 147.721,251.401 152.055,254.734 157.5,256.5C 157.5,256.833 157.5,257.167 157.5,257.5C 157.082,258.222 156.416,258.722 155.5,259C 156.71,260.039 157.71,261.206 158.5,262.5C 158.414,263.496 158.748,264.329 159.5,265C 155.975,265.179 152.641,265.679 149.5,266.5C 142.515,259.512 135.848,252.178 129.5,244.5C 138.159,240.335 147.159,237.501 156.5,236C 157.044,236.717 157.711,237.217 158.5,237.5 Z"/></g>
<g><path style="opacity:1" fill="#3b3131" d="M 169.5,237.5 C 170.757,240.427 172.757,242.761 175.5,244.5C 175.56,245.043 175.893,245.376 176.5,245.5C 177.182,244.757 177.849,244.091 178.5,243.5C 186.167,243.5 193.833,243.5 201.5,243.5C 201.573,245.027 200.906,246.027 199.5,246.5C 181.167,246.5 162.833,246.5 144.5,246.5C 143.15,245.176 143.317,244.176 145,243.5C 150.012,242.342 154.512,240.342 158.5,237.5C 160.956,236.738 163.456,236.071 166,235.5C 167.699,235.387 168.866,236.053 169.5,237.5 Z"/></g>
<g><path style="opacity:1" fill="#453f3f" d="M 144.5,246.5 C 162.833,246.5 181.167,246.5 199.5,246.5C 199.573,248.027 198.906,249.027 197.5,249.5C 183.151,249.167 168.818,249.501 154.5,250.5C 154.977,251.478 155.643,252.311 156.5,253C 169.162,253.5 181.829,253.667 194.5,253.5C 194.5,254.167 194.5,254.833 194.5,255.5C 194.167,255.5 193.833,255.5 193.5,255.5C 181.322,255.172 169.322,255.505 157.5,256.5C 152.055,254.734 147.721,251.401 144.5,246.5 Z"/></g>
<g><path style="opacity:1" fill="#362c2b" d="M 197.5,249.5 C 197.262,251.404 196.262,252.738 194.5,253.5C 181.829,253.667 169.162,253.5 156.5,253C 155.643,252.311 154.977,251.478 154.5,250.5C 168.818,249.501 183.151,249.167 197.5,249.5 Z"/></g>
<g><path style="opacity:1" fill="#3e3434" d="M 193.5,255.5 C 188.905,262.36 184.572,269.36 180.5,276.5C 179.719,279.072 178.219,281.072 176,282.5C 173.984,280.317 171.818,278.317 169.5,276.5C 169.649,275.448 169.483,274.448 169,273.5C 166.96,271.63 165.127,269.63 163.5,267.5C 164.718,266.839 166.051,266.172 167.5,265.5C 165.014,261.672 161.681,259.005 157.5,257.5C 157.5,257.167 157.5,256.833 157.5,256.5C 169.322,255.505 181.322,255.172 193.5,255.5 Z"/></g>
<g><path style="opacity:0.994" fill="#fc3002" d="M 193.5,255.5 C 193.833,255.5 194.167,255.5 194.5,255.5C 193.829,256.847 193.829,258.014 194.5,259C 197.482,259.498 200.482,259.665 203.5,259.5C 198.386,266.885 193.386,274.385 188.5,282C 187.5,282.667 186.5,282.667 185.5,282C 184.167,279.809 182.5,277.976 180.5,276.5C 184.572,269.36 188.905,262.36 193.5,255.5 Z"/></g>
<g><path style="opacity:1" fill="#43636a" d="M 157.5,257.5 C 161.681,259.005 165.014,261.672 167.5,265.5C 166.051,266.172 164.718,266.839 163.5,267.5C 161.605,266.027 159.939,264.36 158.5,262.5C 157.71,261.206 156.71,260.039 155.5,259C 156.416,258.722 157.082,258.222 157.5,257.5 Z"/></g>
<g><path style="opacity:0.68" fill="#59fefe" d="M 158.5,262.5 C 159.939,264.36 161.605,266.027 163.5,267.5C 165.127,269.63 166.96,271.63 169,273.5C 169.483,274.448 169.649,275.448 169.5,276.5C 168.308,278.878 166.641,280.878 164.5,282.5C 158.773,277.776 153.773,272.442 149.5,266.5C 152.641,265.679 155.975,265.179 159.5,265C 158.748,264.329 158.414,263.496 158.5,262.5 Z"/></g>
</svg>
