<?xml version="1.0" encoding="UTF-8"?>
<!-- Generated by Pixelmator Pro 3.6.14 -->
<svg width="256" height="256" viewBox="0 0 256 256" xmlns="http://www.w3.org/2000/svg">
    <g id="g1">
        <path id="path1" fill="#36676f" fill-rule="evenodd" stroke="none" d="M 120.5 22.5 C 120.585999 23.495911 120.251999 24.329193 119.5 25 C 114.341003 26.854706 111.341003 30.354706 110.5 35.5 C 109.143005 36.685394 107.643005 37.685394 106 38.5 C 104.587997 37.077301 103.421005 37.244019 102.5 39 C 100.526993 39.495483 98.526993 39.662109 96.5 39.5 C 96.774994 37.241699 97.774994 36.908386 99.5 38.5 C 103.147995 37.526794 104.813995 35.193481 104.5 31.5 C 108.033005 27.565186 112.365997 24.898499 117.5 23.5 C 118.608994 23.443115 119.608994 23.109802 120.5 22.5 Z"/>
    </g>
    <g id="g2">
        <path id="path2" fill="#50fdfd" fill-rule="evenodd" stroke="none" opacity="0.878" d="M 117.5 23.5 C 112.365997 24.898499 108.033005 27.565186 104.5 31.5 C 103.733002 32.171997 103.065994 33.00531 102.5 34 C 98.748001 34.240112 95.080994 34.740112 91.5 35.5 C 91.371994 33.345306 91.871994 31.345306 93 29.5 C 96.667007 26.833313 100.332993 24.166687 104 21.5 C 104.688995 22.356689 105.522003 23.023315 106.5 23.5 C 109.647995 22.787811 112.813995 22.121094 116 21.5 C 117.029999 21.83609 117.529999 22.502808 117.5 23.5 Z"/>
    </g>
    <g id="g3">
        <path id="path3" fill="#342f2e" fill-rule="evenodd" stroke="none" d="M 129.5 23.5 C 128.957001 23.559998 128.623993 23.893311 128.5 24.5 C 133.223007 25.4617 137.557007 27.295105 141.5 30 C 133.970993 30.389191 133.970993 31.889191 141.5 34.5 C 142.167007 35.166687 142.832993 35.833313 143.5 36.5 C 132.320999 36.827911 121.320999 36.494598 110.5 35.5 C 111.341003 30.354706 114.341003 26.854706 119.5 25 C 120.251999 24.329193 120.585999 23.495911 120.5 22.5 C 122.884003 22.556702 125.218002 22.223389 127.5 21.5 C 128.712997 21.747192 129.380005 22.413818 129.5 23.5 Z"/>
    </g>
    <g id="g4">
        <path id="path4" fill="#fb3508" fill-rule="evenodd" stroke="none" opacity="0.771" d="M 151.5 32.5 C 148.167007 33.166687 144.832993 33.833313 141.5 34.5 C 133.970993 31.889191 133.970993 30.389191 141.5 30 C 137.557007 27.295105 133.223007 25.4617 128.5 24.5 C 128.623993 23.893311 128.957001 23.559998 129.5 23.5 C 133.042007 22.325409 136.709 21.658691 140.5 21.5 C 140.5 22.5 140.5 23.5 140.5 24.5 C 146.139008 24.399811 150.806 26.399811 154.5 30.5 C 152.602005 30.996307 151.602005 31.662994 151.5 32.5 Z"/>
    </g>
    <g id="g5">
        <path id="path5" fill="#4dfbfb" fill-rule="evenodd" stroke="none" opacity="0.757" d="M 104.5 31.5 C 104.813995 35.193481 103.147995 37.526794 99.5 38.5 C 97.774994 36.908386 96.774994 37.241699 96.5 39.5 C 95.149994 44.632813 96.817001 45.632797 101.5 42.5 C 102.182999 42.862701 102.850006 43.196106 103.5 43.5 C 103.167007 44.5 102.5 45.166702 101.5 45.5 C 100.233994 46.089905 98.901001 46.589905 97.5 47 C 98.740997 48.486511 98.240997 49.319901 96 49.5 C 92.242996 49.611099 89.908997 47.944397 89 44.5 C 85.737 46.8396 83.570007 45.8396 82.5 41.5 C 82.970001 39.226196 83.970001 37.226196 85.5 35.5 C 87.352997 37.738403 89.352997 37.738403 91.5 35.5 C 95.080994 34.740112 98.748001 34.240112 102.5 34 C 103.065994 33.00531 103.733002 32.171997 104.5 31.5 Z"/>
    </g>
    <g id="g6">
        <path id="path6" fill="#fb2c01" fill-rule="evenodd" stroke="none" d="M 151.5 32.5 C 158.505005 37.162994 163.171005 43.496399 165.5 51.5 C 161.951996 51.90509 158.619003 51.40509 155.5 50 C 165.917999 47.721405 165.585007 46.721405 154.5 47 C 154.832993 47.333298 155.167007 47.666702 155.5 48 C 154.584 48.278397 153.917999 48.778397 153.5 49.5 C 152.5 48.166702 151.5 46.833298 150.5 45.5 C 150.572998 43.973083 149.906006 42.973083 148.5 42.5 C 147.580994 39.910797 145.914001 37.910797 143.5 36.5 C 142.832993 35.833313 142.167007 35.166687 141.5 34.5 C 144.832993 33.833313 148.167007 33.166687 151.5 32.5 Z"/>
    </g>
    <g id="g7">
        <path id="path7" fill="#343131" fill-rule="evenodd" stroke="none" d="M 110.5 35.5 C 121.320999 36.494598 132.320999 36.827911 143.5 36.5 C 145.914001 37.910797 147.580994 39.910797 148.5 42.5 C 133.675995 43.496094 118.675995 43.829407 103.5 43.5 C 102.850006 43.196106 102.182999 42.862701 101.5 42.5 C 96.817001 45.632797 95.149994 44.632813 96.5 39.5 C 98.526993 39.662109 100.526993 39.495483 102.5 39 C 103.421005 37.244019 104.587997 37.077301 106 38.5 C 107.643005 37.685394 109.143005 36.685394 110.5 35.5 Z"/>
    </g>
    <g id="g8">
        <path id="path8" fill="#3d3c3c" fill-rule="evenodd" stroke="none" d="M 148.5 42.5 C 149.906006 42.973083 150.572998 43.973083 150.5 45.5 C 141.843994 46.087189 133.177994 46.587189 124.5 47 C 125.056 47.382599 125.389008 47.882599 125.5 48.5 C 125.167007 48.5 124.832993 48.5 124.5 48.5 C 120.992004 46.774689 117.326004 45.441406 113.5 44.5 C 111.518997 44.437103 109.852005 45.10379 108.5 46.5 C 108.854996 47.522308 109.522003 48.188995 110.5 48.5 C 107.932007 49.643097 105.264999 49.47641 102.5 48 C 101.748001 47.329193 101.414001 46.495911 101.5 45.5 C 102.5 45.166702 103.167007 44.5 103.5 43.5 C 118.675995 43.829407 133.675995 43.496094 148.5 42.5 Z"/>
    </g>
    <g id="g9">
        <path id="path9" fill="#39302f" fill-rule="evenodd" stroke="none" d="M 150.5 45.5 C 151.5 46.833298 152.5 48.166702 153.5 49.5 C 154.037994 51.117203 154.371002 52.783905 154.5 54.5 C 148.690002 55.489594 142.690002 55.822906 136.5 55.5 C 133.087997 52.949493 129.421997 50.616211 125.5 48.5 C 125.389008 47.882599 125.056 47.382599 124.5 47 C 133.177994 46.587189 141.843994 46.087189 150.5 45.5 Z"/>
    </g>
    <g id="g10">
        <path id="path10" fill="#75fdfd" fill-rule="evenodd" stroke="none" opacity="0.808" d="M 124.5 48.5 C 126.841995 52.001297 129.507996 55.334595 132.5 58.5 C 131.703003 60.132004 130.703003 61.632004 129.5 63 C 129.832993 64 130.167007 65 130.5 66 C 128.703995 67.752991 127.537994 69.919998 127 72.5 C 125.988998 73.337006 124.822006 73.669998 123.5 73.5 C 123.5 74.833008 123.5 76.166992 123.5 77.5 C 117.779007 83.049011 115.779007 81.382004 117.5 72.5 C 117.5 72.166992 117.5 71.833008 117.5 71.5 C 118.925003 70.078003 119.925003 68.411011 120.5 66.5 C 123.972 57.199997 120.638 51.199799 110.5 48.5 C 109.522003 48.188995 108.854996 47.522308 108.5 46.5 C 109.852005 45.10379 111.518997 44.437103 113.5 44.5 C 117.326004 45.441406 120.992004 46.774689 124.5 48.5 Z"/>
    </g>
    <g id="g11">
        <path id="path11" fill="#b0f8f8" fill-rule="evenodd" stroke="none" opacity="0.906" d="M 124.5 48.5 C 124.832993 48.5 125.167007 48.5 125.5 48.5 C 129.421997 50.616211 133.087997 52.949493 136.5 55.5 C 136.953003 56.458008 137.619003 57.291992 138.5 58 C 137.552002 58.483002 136.552002 58.649002 135.5 58.5 C 135.737 59.791 135.404007 60.791 134.5 61.5 C 133.167007 62.166992 133.167007 62.833008 134.5 63.5 C 134.5 64.5 134.5 65.5 134.5 66.5 C 132.292007 67.893997 130.792007 69.893997 130 72.5 C 128.074005 74.539001 125.906998 76.205994 123.5 77.5 C 123.5 76.166992 123.5 74.833008 123.5 73.5 C 124.822006 73.669998 125.988998 73.337006 127 72.5 C 127.537994 69.919998 128.703995 67.752991 130.5 66 C 130.167007 65 129.832993 64 129.5 63 C 130.703003 61.632004 131.703003 60.132004 132.5 58.5 C 129.507996 55.334595 126.841995 52.001297 124.5 48.5 Z"/>
    </g>
    <g id="g12">
        <path id="path12" fill="#fe2c00" fill-rule="evenodd" stroke="none" opacity="0.937" d="M 165.5 51.5 C 167.597 56.713989 167.931 62.046997 166.5 67.5 C 162.628998 67.815002 158.962006 67.481995 155.5 66.5 C 155.817001 62.298004 155.483002 58.298004 154.5 54.5 C 154.371002 52.783905 154.037994 51.117203 153.5 49.5 C 153.917999 48.778397 154.584 48.278397 155.5 48 C 155.167007 47.666702 154.832993 47.333298 154.5 47 C 165.585007 46.721405 165.917999 47.721405 155.5 50 C 158.619003 51.40509 161.951996 51.90509 165.5 51.5 Z"/>
    </g>
    <g id="g13">
        <path id="path13" fill="#3f3434" fill-rule="evenodd" stroke="none" d="M 154.5 54.5 C 155.483002 58.298004 155.817001 62.298004 155.5 66.5 C 153.399002 72.036011 150.731995 77.369995 147.5 82.5 C 146.167007 83.833008 144.832993 85.167007 143.5 86.5 C 132.679001 85.505005 121.679001 85.171997 110.5 85.5 C 110.5 84.5 110.5 83.5 110.5 82.5 C 112.5 82.5 114.5 82.5 116.5 82.5 C 126.315994 81.203003 133.983002 76.369995 139.5 68 C 137.617996 67.802002 135.951996 67.302002 134.5 66.5 C 134.5 65.5 134.5 64.5 134.5 63.5 C 134.5 62.833008 134.5 62.166992 134.5 61.5 C 135.404007 60.791 135.737 59.791 135.5 58.5 C 136.552002 58.649002 137.552002 58.483002 138.5 58 C 137.619003 57.291992 136.953003 56.458008 136.5 55.5 C 142.690002 55.822906 148.690002 55.489594 154.5 54.5 Z"/>
    </g>
    <g id="g14">
        <path id="path14" fill="#fefffe" fill-rule="evenodd" stroke="none" opacity="0.004" d="M 120.5 66.5 C 119.832993 65.166992 119.832993 65.166992 120.5 66.5 Z"/>
    </g>
    <g id="g15">
        <path id="path15" fill="#506468" fill-rule="evenodd" stroke="none" opacity="0.982" d="M 134.5 66.5 C 135.951996 67.302002 137.617996 67.802002 139.5 68 C 133.983002 76.369995 126.315994 81.203003 116.5 82.5 C 116.186996 78.958008 116.520996 75.625 117.5 72.5 C 115.779007 81.382004 117.779007 83.049011 123.5 77.5 C 125.906998 76.205994 128.074005 74.539001 130 72.5 C 130.792007 69.893997 132.292007 67.893997 134.5 66.5 Z"/>
    </g>
    <g id="g16">
        <path id="path16" fill="#fb4e19" fill-rule="evenodd" stroke="none" opacity="0.633" d="M 192.5 70.5 C 192.5 71.166992 192.167007 71.5 191.5 71.5 C 189.585007 71.783997 187.919006 71.450989 186.5 70.5 C 188.052994 68.61499 190.052994 67.61499 192.5 67.5 C 192.5 68.5 192.5 69.5 192.5 70.5 Z"/>
    </g>
    <g id="g17">
        <path id="path17" fill="#fefffe" fill-rule="evenodd" stroke="none" opacity="0.004" d="M 86.5 70.5 C 87.524994 70.897003 87.692001 71.563004 87 72.5 C 86.535995 71.906006 86.369003 71.238998 86.5 70.5 Z"/>
    </g>
    <g id="g18">
        <path id="path18" fill="#3e656d" fill-rule="evenodd" stroke="none" d="M 102.5 67.5 C 105.098999 67.549011 107.266006 68.549011 109 70.5 C 109.498993 76.156998 109.666 81.824005 109.5 87.5 C 107.832993 87.5 106.167007 87.5 104.5 87.5 C 104.167007 87.5 103.832993 87.5 103.5 87.5 C 103.751007 81.108002 103.417999 74.774994 102.5 68.5 C 102.5 68.166992 102.5 67.833008 102.5 67.5 Z"/>
    </g>
    <g id="g19">
        <path id="path19" fill="#383333" fill-rule="evenodd" stroke="none" opacity="0.874" d="M 23.5 70.5 C 39.6754 70.169998 55.675003 70.503998 71.5 71.5 C 56.073997 73.459991 40.407402 74.126999 24.5 73.5 C 23.596001 72.791 23.262703 71.791 23.5 70.5 Z"/>
    </g>
    <g id="g20">
        <path id="path20" fill="#ffcfc5" fill-rule="evenodd" stroke="none" opacity="0.31" d="M 168.5 69.5 C 169.776001 70.386002 169.776001 71.386002 168.5 72.5 C 167.378006 73.630005 166.044006 74.296997 164.5 74.5 C 163.755997 71.050003 165.089996 69.384003 168.5 69.5 Z"/>
    </g>
    <g id="g21">
        <path id="path21" fill="#403737" fill-rule="evenodd" stroke="none" opacity="0.993" d="M 117.5 71.5 C 117.5 71.833008 117.5 72.166992 117.5 72.5 C 116.520996 75.625 116.186996 78.958008 116.5 82.5 C 114.5 82.5 112.5 82.5 110.5 82.5 C 110.5 83.5 110.5 84.5 110.5 85.5 C 121.679001 85.171997 132.679001 85.505005 143.5 86.5 C 142.832993 87.832993 141.832993 88.832993 140.5 89.5 C 128.677994 88.505005 116.677994 88.171997 104.5 88.5 C 104.5 88.167007 104.5 87.832993 104.5 87.5 C 106.167007 87.5 107.832993 87.5 109.5 87.5 C 109.666 81.824005 109.498993 76.156998 109 70.5 C 107.266006 68.549011 105.098999 67.549011 102.5 67.5 C 102.192001 65.075989 102.526001 62.742996 103.5 60.5 C 108.184998 64.190002 112.852005 67.856995 117.5 71.5 Z"/>
    </g>
    <g id="g22">
        <path id="path22" fill="#423635" fill-rule="evenodd" stroke="none" d="M 192.5 70.5 C 208.166992 70.5 223.833008 70.5 239.5 70.5 C 237.582001 75.343002 234.915985 79.677002 231.5 83.5 C 218.677002 82.505005 205.677002 82.17099 192.5 82.5 C 190.572998 78.942993 190.238998 75.276001 191.5 71.5 C 192.167007 71.5 192.5 71.166992 192.5 70.5 Z"/>
    </g>
    <g id="g23">
        <path id="path23" fill="#483f3f" fill-rule="evenodd" stroke="none" d="M 71.5 71.5 C 71.5 73.5 71.5 75.5 71.5 77.5 C 71.167 77.5 70.833 77.5 70.5 77.5 C 56.167 76.166992 41.833298 76.166992 27.5 77.5 C 26.511597 76.205002 25.511597 74.872009 24.5 73.5 C 40.407402 74.126999 56.073997 73.459991 71.5 71.5 Z"/>
    </g>
    <g id="g24">
        <path id="path24" fill="#406a72" fill-rule="evenodd" stroke="none" d="M 17.5 70.5 C 19.5 70.5 21.5 70.5 23.5 70.5 C 23.262703 71.791 23.596001 72.791 24.5 73.5 C 25.511597 74.872009 26.511597 76.205002 27.5 77.5 C 28.474602 79.794998 29.807899 81.794998 31.5 83.5 C 31.932098 84.710007 32.598701 85.710007 33.5 86.5 C 31.833298 87.167007 30.166702 87.832993 28.5 88.5 C 27.728104 87.306 26.728104 86.306 25.5 85.5 C 22.037003 80.906006 19.370399 75.906006 17.5 70.5 Z"/>
    </g>
    <g id="g25">
        <path id="path25" fill="#49fdfd" fill-rule="evenodd" stroke="none" opacity="0.917" d="M 17.5 70.5 C 19.370399 75.906006 22.037003 80.906006 25.5 85.5 C 22.038101 86.481995 18.371399 86.815002 14.5 86.5 C 9.944901 81.942001 6.6115 76.608002 4.5 70.5 C 8.833302 70.5 13.166698 70.5 17.5 70.5 Z"/>
    </g>
    <g id="g26">
        <path id="path26" fill="#fc3206" fill-rule="evenodd" stroke="none" d="M 155.5 66.5 C 158.962006 67.481995 162.628998 67.815002 166.5 67.5 C 167.328995 68.332001 168.162003 67.998993 169 66.5 C 169.470001 67.576996 169.302994 68.576996 168.5 69.5 C 165.089996 69.384003 163.755997 71.050003 164.5 74.5 C 163.018005 77.622009 161.350998 80.622009 159.5 83.5 C 158.832993 83.5 158.5 83.833008 158.5 84.5 C 157.832993 84.5 157.5 84.832993 157.5 85.5 C 157.167007 85.5 156.832993 85.5 156.5 85.5 C 153.149994 85.664993 149.817001 85.498001 146.5 85 C 147.251999 84.328995 147.585999 83.496002 147.5 82.5 C 150.731995 77.369995 153.399002 72.036011 155.5 66.5 Z"/>
    </g>
    <g id="g27">
        <path id="path27" fill="#fc2e01" fill-rule="evenodd" stroke="none" opacity="0.999" d="M 239.5 70.5 C 243.5 70.5 247.5 70.5 251.5 70.5 C 245.177002 82.477997 237.843994 93.811005 229.5 104.5 C 225.67099 105.069 222.337006 104.401993 219.5 102.5 C 221.075012 98.921997 223.075012 95.589005 225.5 92.5 C 226.600006 91.395004 227.266998 90.061996 227.5 88.5 C 229.542999 87.421005 230.876007 85.753998 231.5 83.5 C 234.915985 79.677002 237.582001 75.343002 239.5 70.5 Z"/>
    </g>
    <g id="g28">
        <path id="path28" fill="#403838" fill-rule="evenodd" stroke="none" d="M 70.5 77.5 C 70.819 82.363007 70.486 87.029999 69.5 91.5 C 69.5 90.5 69.5 89.5 69.5 88.5 C 55.989998 88.171005 42.656197 88.503998 29.5 89.5 C 28.833298 89.5 28.5 89.167007 28.5 88.5 C 30.166702 87.832993 31.833298 87.167007 33.5 86.5 C 45.5 86.5 57.5 86.5 69.5 86.5 C 69.5 85.167007 69.5 83.833008 69.5 82.5 C 56.655998 82.17099 43.988998 82.505005 31.5 83.5 C 29.807899 81.794998 28.474602 79.794998 27.5 77.5 C 41.833298 76.166992 56.167 76.166992 70.5 77.5 Z"/>
    </g>
    <g id="g29">
        <path id="path29" fill="#4efcfc" fill-rule="evenodd" stroke="none" d="M 102.5 68.5 C 103.417999 74.774994 103.751007 81.108002 103.5 87.5 C 103.824997 95.352005 103.492004 103.018005 102.5 110.5 C 102.5 103.5 102.5 96.5 102.5 89.5 C 99.615005 89.194 96.947998 89.526993 94.5 90.5 C 92.177994 89.197998 90.845001 87.197998 90.5 84.5 C 90.169006 76.472 90.501999 68.472 91.5 60.5 C 95.203003 63.216003 98.869995 65.882996 102.5 68.5 Z"/>
    </g>
    <g id="g30">
        <path id="path30" fill="#433838" fill-rule="evenodd" stroke="none" d="M 184.5 72.5 C 185.067001 74.697998 185.067001 77.031006 184.5 79.5 C 183.167007 79.5 181.832993 79.5 180.5 79.5 C 179.531998 81.606995 179.197998 83.94101 179.5 86.5 C 174.820999 86.666 170.154999 86.498993 165.5 86 C 169.029007 83.609009 171.362 80.442993 172.5 76.5 C 173.429001 75.684998 174.429001 74.85199 175.5 74 C 174.692001 73.692001 174.024994 73.192001 173.5 72.5 C 175.699005 69.945007 178.365997 68.278992 181.5 67.5 C 181.5 69.166992 181.5 70.833008 181.5 72.5 C 182.5 72.5 183.5 72.5 184.5 72.5 Z"/>
    </g>
    <g id="g31">
        <path id="path31" fill="#73352d" fill-rule="evenodd" stroke="none" d="M 186.5 70.5 C 187.919006 71.450989 189.585007 71.783997 191.5 71.5 C 190.238998 75.276001 190.572998 78.942993 192.5 82.5 C 192.5 84.167007 192.5 85.832993 192.5 87.5 C 190.5 87.5 188.5 87.5 186.5 87.5 C 186.5 85.167007 186.5 82.833008 186.5 80.5 C 187.5 80.5 188.5 80.5 189.5 80.5 C 189.5 78.166992 189.5 75.833008 189.5 73.5 C 187.619995 73.770996 186.287003 73.104004 185.5 71.5 C 185.5 70.833008 185.832993 70.5 186.5 70.5 Z"/>
    </g>
    <g id="g32">
        <path id="path32" fill="#352c2c" fill-rule="evenodd" stroke="none" d="M 33.5 86.5 C 32.598701 85.710007 31.932098 84.710007 31.5 83.5 C 43.988998 82.505005 56.655998 82.17099 69.5 82.5 C 69.5 83.833008 69.5 85.167007 69.5 86.5 C 57.5 86.5 45.5 86.5 33.5 86.5 Z"/>
    </g>
    <g id="g33">
        <path id="path33" fill="#3d5b61" fill-rule="evenodd" stroke="none" d="M 76.5 87.5 C 76.767998 85.901001 76.433998 84.567993 75.5 83.5 C 75.5 83.166992 75.5 82.833008 75.5 82.5 C 76.290001 81.390991 76.790001 80.057999 77 78.5 C 78.350998 80.018997 79.850998 81.35199 81.5 82.5 C 82.451996 84.044998 82.785004 85.712006 82.5 87.5 C 80.5 87.5 78.5 87.5 76.5 87.5 Z"/>
    </g>
    <g id="g34">
        <path id="path34" fill="#773b35" fill-rule="evenodd" stroke="none" opacity="0.894" d="M 165.5 79.5 C 164.632004 83.203003 162.466003 85.869995 159 87.5 C 157.970001 87.164001 157.470001 86.496994 157.5 85.5 C 158.167007 85.5 158.5 85.167007 158.5 84.5 C 159.167007 84.5 159.5 84.167007 159.5 83.5 C 161.5 82.166992 163.5 80.833008 165.5 79.5 Z"/>
    </g>
    <g id="g35">
        <path id="path35" fill="#3a3030" fill-rule="evenodd" stroke="none" d="M 192.5 82.5 C 205.677002 82.17099 218.677002 82.505005 231.5 83.5 C 230.876007 85.753998 229.542999 87.421005 227.5 88.5 C 213.833008 88.5 200.167007 88.5 186.5 88.5 C 186.5 88.167007 186.5 87.832993 186.5 87.5 C 188.5 87.5 190.5 87.5 192.5 87.5 C 192.5 85.832993 192.5 84.167007 192.5 82.5 Z"/>
    </g>
    <g id="g36">
        <path id="path36" fill="#f92a03" fill-rule="evenodd" stroke="none" opacity="0.999" d="M 147.5 82.5 C 147.585999 83.496002 147.251999 84.328995 146.5 85 C 149.817001 85.498001 153.149994 85.664993 156.5 85.5 C 153.673996 88.496002 151.007004 91.662994 148.5 95 C 150.238007 97.643005 151.572006 100.477005 152.5 103.5 C 152.673996 105.860992 153.007004 108.194 153.5 110.5 C 152.167007 110.5 150.832993 110.5 149.5 110.5 C 149.128006 106.703003 147.794006 103.369995 145.5 100.5 C 143.897995 96.904999 141.897995 93.570999 139.5 90.5 C 140.167007 90.5 140.5 90.167007 140.5 89.5 C 141.832993 88.832993 142.832993 87.832993 143.5 86.5 C 144.832993 85.167007 146.167007 83.833008 147.5 82.5 Z"/>
    </g>
    <g id="g37">
        <path id="path37" fill="#352c2d" fill-rule="evenodd" stroke="none" d="M 69.5 91.5 C 67.5 91.5 65.5 91.5 63.5 91.5 C 52.848 92.195999 42.181 92.529999 31.5 92.5 C 30.093697 92.026993 29.427002 91.026993 29.5 89.5 C 42.656197 88.503998 55.989998 88.171005 69.5 88.5 C 69.5 89.5 69.5 90.5 69.5 91.5 Z"/>
    </g>
    <g id="g38">
        <path id="path38" fill="#362b2b" fill-rule="evenodd" stroke="none" d="M 104.5 88.5 C 116.677994 88.171997 128.677994 88.505005 140.5 89.5 C 140.5 90.167007 140.167007 90.5 139.5 90.5 C 128.085999 92.445999 116.419006 93.112 104.5 92.5 C 104.5 91.167007 104.5 89.832993 104.5 88.5 Z"/>
    </g>
    <g id="g39">
        <path id="path39" fill="#372b2b" fill-rule="evenodd" stroke="none" d="M 186.5 88.5 C 200.167007 88.5 213.833008 88.5 227.5 88.5 C 227.266998 90.061996 226.600006 91.395004 225.5 92.5 C 214.153992 92.514008 202.820999 92.181 191.5 91.5 C 189.832993 91.5 188.167007 91.5 186.5 91.5 C 186.5 90.5 186.5 89.5 186.5 88.5 Z"/>
    </g>
    <g id="g40">
        <path id="path40" fill="#3f3636" fill-rule="evenodd" stroke="none" d="M 90.5 84.5 C 90.845001 87.197998 92.177994 89.197998 94.5 90.5 C 95.139999 99.266006 95.807007 107.932007 96.5 116.5 C 96.5 119.5 96.5 122.5 96.5 125.5 C 95.675995 128.764008 95.341995 132.098007 95.5 135.5 C 91.167007 135.5 86.832993 135.5 82.5 135.5 C 82.5 134.167007 82.5 132.832993 82.5 131.5 C 82.5 126.167007 82.5 120.832993 82.5 115.5 C 80.5 115.5 78.5 115.5 76.5 115.5 C 76.5 106.167007 76.5 96.832993 76.5 87.5 C 78.5 87.5 80.5 87.5 82.5 87.5 C 82.785004 85.712006 82.451996 84.044998 81.5 82.5 C 79.850998 81.35199 78.350998 80.018997 77 78.5 C 76.790001 80.057999 76.290001 81.390991 75.5 82.5 C 75.5 82.166992 75.5 81.833008 75.5 81.5 C 75.783997 78.222992 75.450996 75.057007 74.5 72 C 75.025002 71.307999 75.692001 70.807999 76.5 70.5 C 80.826996 75.494003 85.494003 80.161011 90.5 84.5 Z"/>
    </g>
    <g id="g41">
        <path id="path41" fill="#45f6f7" fill-rule="evenodd" stroke="none" d="M 102.5 110.5 C 102.5 111.167007 102.5 111.832993 102.5 112.5 C 100.246002 113.414993 98.246002 114.748001 96.5 116.5 C 95.807007 107.932007 95.139999 99.266006 94.5 90.5 C 96.947998 89.526993 99.615005 89.194 102.5 89.5 C 102.5 96.5 102.5 103.5 102.5 110.5 Z"/>
    </g>
    <g id="g42">
        <path id="path42" fill="#423635" fill-rule="evenodd" stroke="none" d="M 172.5 76.5 C 171.362 80.442993 169.029007 83.609009 165.5 86 C 170.154999 86.498993 174.820999 86.666 179.5 86.5 C 179.197998 83.94101 179.531998 81.606995 180.5 79.5 C 180.5 101.167007 180.5 122.832993 180.5 144.5 C 179.595993 143.791 179.263 142.791 179.5 141.5 C 179.5 137.5 179.5 133.5 179.5 129.5 C 179.5 124.167007 179.5 118.832993 179.5 113.5 C 173.074005 112.880005 167.074005 113.546997 161.5 115.5 C 161.167007 115.5 160.832993 115.5 160.5 115.5 C 160.660004 113.800995 160.494003 112.134003 160 110.5 C 158.871002 112.141006 157.371002 113.141006 155.5 113.5 C 154.992996 109.917007 153.992996 106.582993 152.5 103.5 C 151.572006 100.477005 150.238007 97.643005 148.5 95 C 151.007004 91.662994 153.673996 88.496002 156.5 85.5 C 156.832993 85.5 157.167007 85.5 157.5 85.5 C 157.470001 86.496994 157.970001 87.164001 159 87.5 C 162.466003 85.869995 164.632004 83.203003 165.5 79.5 C 167.136002 76.507004 169.468994 75.507004 172.5 76.5 Z"/>
    </g>
    <g id="g43">
        <path id="path43" fill="#f12a05" fill-rule="evenodd" stroke="none" opacity="0.92" d="M 185.5 71.5 C 186.287003 73.104004 187.619995 73.770996 189.5 73.5 C 189.5 75.833008 189.5 78.166992 189.5 80.5 C 188.5 80.5 187.5 80.5 186.5 80.5 C 186.5 82.833008 186.5 85.167007 186.5 87.5 C 186.5 87.832993 186.5 88.167007 186.5 88.5 C 186.5 89.5 186.5 90.5 186.5 91.5 C 188.167007 91.5 189.832993 91.5 191.5 91.5 C 191.5 92.167007 191.832993 92.5 192.5 92.5 C 192.5 93.5 192.5 94.5 192.5 95.5 C 191.595993 96.209 191.263 97.209 191.5 98.5 C 188.167007 98.5 184.832993 98.5 181.5 98.5 C 181.5 106.5 181.5 114.5 181.5 122.5 C 181.5 129.832993 181.5 137.167007 181.5 144.5 C 182.791 144.263 183.791 144.595993 184.5 145.5 C 182.901001 145.768005 181.567993 145.434006 180.5 144.5 C 180.5 122.832993 180.5 101.167007 180.5 79.5 C 181.832993 79.5 183.167007 79.5 184.5 79.5 C 185.067001 77.031006 185.067001 74.697998 184.5 72.5 C 184.5 71.833008 184.832993 71.5 185.5 71.5 Z"/>
    </g>
    <g id="g44">
        <path id="path44" fill="#49fcfc" fill-rule="evenodd" stroke="none" opacity="0.914" d="M 25.5 85.5 C 26.728104 86.306 27.728104 87.306 28.5 88.5 C 28.5 89.167007 28.833298 89.5 29.5 89.5 C 29.427002 91.026993 30.093697 92.026993 31.5 92.5 C 33.778801 98.940994 37.945503 103.606995 44 106.5 C 45.166702 108.332993 46.333298 110.167007 47.5 112 C 46.584198 112.278 45.917503 112.778 45.5 113.5 C 45.5 113.832993 45.5 114.167007 45.5 114.5 C 41.116302 112.824997 37.116302 113.158005 33.5 115.5 C 26.780899 106.108994 20.447601 96.442001 14.5 86.5 C 18.371399 86.815002 22.038101 86.481995 25.5 85.5 Z"/>
    </g>
    <g id="g45">
        <path id="path45" fill="#403838" fill-rule="evenodd" stroke="none" opacity="0.999" d="M 63.5 91.5 C 63.5 91.832993 63.5 92.167007 63.5 92.5 C 61.075996 92.192001 58.742996 92.526001 56.5 93.5 C 58.505997 96.828995 60.838997 99.828995 63.5 102.5 C 64.332001 106.501007 65.999001 110.167999 68.5 113.5 C 60.833 113.5 53.167 113.5 45.5 113.5 C 45.917503 112.778 46.584198 112.278 47.5 112 C 46.333298 110.167007 45.166702 108.332993 44 106.5 C 37.945503 103.606995 33.778801 98.940994 31.5 92.5 C 42.181 92.529999 52.848 92.195999 63.5 91.5 Z"/>
    </g>
    <g id="g46">
        <path id="path46" fill="#423737" fill-rule="evenodd" stroke="none" opacity="0.999" d="M 191.5 91.5 C 202.820999 92.181 214.153992 92.514008 225.5 92.5 C 223.075012 95.589005 221.075012 98.921997 219.5 102.5 C 217.833008 104.5 216.166992 106.5 214.5 108.5 C 206.932007 107.188004 199.264999 107.188004 191.5 108.5 C 191.832993 107.167007 192.167007 105.832993 192.5 104.5 C 195.020996 100.645996 197.688004 96.811996 200.5 93 C 197.854004 92.503006 195.186996 92.335999 192.5 92.5 C 191.832993 92.5 191.5 92.167007 191.5 91.5 Z"/>
    </g>
    <g id="g47">
        <path id="path47" fill="#3f3636" fill-rule="evenodd" stroke="none" d="M 103.5 87.5 C 103.832993 87.5 104.167007 87.5 104.5 87.5 C 104.5 87.832993 104.5 88.167007 104.5 88.5 C 104.5 89.832993 104.5 91.167007 104.5 92.5 C 116.419006 93.112 128.085999 92.445999 139.5 90.5 C 141.897995 93.570999 143.897995 96.904999 145.5 100.5 C 136.832993 101.167007 128.167007 101.832993 119.5 102.5 C 118.5 102.5 117.5 102.5 116.5 102.5 C 116.598999 105.237 116.264999 107.904007 115.5 110.5 C 114.306 111.272003 113.306 112.272003 112.5 113.5 C 111.167007 114.5 109.832993 115.5 108.5 116.5 C 106.5 116.5 104.5 116.5 102.5 116.5 C 102.5 115.167007 102.5 113.832993 102.5 112.5 C 102.5 111.832993 102.5 111.167007 102.5 110.5 C 103.492004 103.018005 103.824997 95.352005 103.5 87.5 Z"/>
    </g>
    <g id="g48">
        <path id="path48" fill="#42fbfb" fill-rule="evenodd" stroke="none" opacity="0.966" d="M 70.5 77.5 C 70.833 77.5 71.167 77.5 71.5 77.5 C 72.5 79.166992 73.833 80.5 75.5 81.5 C 75.5 81.833008 75.5 82.166992 75.5 82.5 C 75.5 82.833008 75.5 83.166992 75.5 83.5 C 75.5 106.832993 75.5 130.167007 75.5 153.5 C 71.5 153.5 67.5 153.5 63.5 153.5 C 63.5 149.832993 63.5 146.167007 63.5 142.5 C 65.887001 144.912994 68.054001 147.580002 70 150.5 C 70.667 138.832993 70.667 127.167007 70 115.5 C 69.722 114.584 69.222 113.917999 68.5 113.5 C 65.999001 110.167999 64.332001 106.501007 63.5 102.5 C 63.5 99.167007 63.5 95.832993 63.5 92.5 C 63.5 92.167007 63.5 91.832993 63.5 91.5 C 65.5 91.5 67.5 91.5 69.5 91.5 C 70.486 87.029999 70.819 82.363007 70.5 77.5 Z"/>
    </g>
    <g id="g49">
        <path id="path49" fill="#3b3131" fill-rule="evenodd" stroke="none" d="M 145.5 100.5 C 147.794006 103.369995 149.128006 106.703003 149.5 110.5 C 149.5 114.5 149.5 118.5 149.5 122.5 C 145.832993 122.5 142.167007 122.5 138.5 122.5 C 137.783997 120.444 137.117004 118.276993 136.5 116 C 134.526993 115.505005 132.526993 115.337997 130.5 115.5 C 129.363998 109.029999 125.697006 104.697006 119.5 102.5 C 128.167007 101.832993 136.832993 101.167007 145.5 100.5 Z"/>
    </g>
    <g id="g50">
        <path id="path50" fill="#f42904" fill-rule="evenodd" stroke="none" d="M 192.5 95.5 C 192.5 98.5 192.5 101.5 192.5 104.5 C 192.167007 105.832993 191.832993 107.167007 191.5 108.5 C 189.807999 110.205002 188.475006 112.205002 187.5 114.5 C 186.509003 120.979004 186.175995 127.645996 186.5 134.5 C 186.5 138.167007 186.5 141.832993 186.5 145.5 C 185.507996 138.018005 185.175003 130.352005 185.5 122.5 C 184.167007 122.5 182.832993 122.5 181.5 122.5 C 181.5 114.5 181.5 106.5 181.5 98.5 C 184.832993 98.5 188.167007 98.5 191.5 98.5 C 191.263 97.209 191.595993 96.209 192.5 95.5 Z"/>
    </g>
    <g id="g51">
        <path id="path51" fill="#fb2f01" fill-rule="evenodd" stroke="none" opacity="0.932" d="M 219.5 102.5 C 222.337006 104.401993 225.67099 105.069 229.5 104.5 C 226.313995 110.218002 222.64801 115.552002 218.5 120.5 C 214.934998 119.212997 211.268005 119.212997 207.5 120.5 C 207.5 120.167007 207.5 119.832993 207.5 119.5 C 210.083008 116.003006 212.415985 112.335999 214.5 108.5 C 216.166992 106.5 217.833008 104.5 219.5 102.5 Z"/>
    </g>
    <g id="g52">
        <path id="path52" fill="#d72d0f" fill-rule="evenodd" stroke="none" d="M 152.5 103.5 C 153.992996 106.582993 154.992996 109.917007 155.5 113.5 C 153.832993 113.5 152.167007 113.5 150.5 113.5 C 150.824005 120.354004 150.490997 127.020996 149.5 133.5 C 149.5 129.832993 149.5 126.167007 149.5 122.5 C 149.5 118.5 149.5 114.5 149.5 110.5 C 150.832993 110.5 152.167007 110.5 153.5 110.5 C 153.007004 108.194 152.673996 105.860992 152.5 103.5 Z"/>
    </g>
    <g id="g53">
        <path id="path53" fill="#3f3434" fill-rule="evenodd" stroke="none" d="M 214.5 108.5 C 212.415985 112.335999 210.083008 116.003006 207.5 119.5 C 202.5 119.5 197.5 119.5 192.5 119.5 C 192.5 118.167007 192.5 116.832993 192.5 115.5 C 190.585007 115.783997 188.919006 115.451004 187.5 114.5 C 188.475006 112.205002 189.807999 110.205002 191.5 108.5 C 199.264999 107.188004 206.932007 107.188004 214.5 108.5 Z"/>
    </g>
    <g id="g54">
        <path id="path54" fill="#392f2f" fill-rule="evenodd" stroke="none" d="M 179.5 129.5 C 175.5 129.5 171.5 129.5 167.5 129.5 C 167.5 124.832993 167.5 120.167007 167.5 115.5 C 165.5 115.5 163.5 115.5 161.5 115.5 C 167.074005 113.546997 173.074005 112.880005 179.5 113.5 C 179.5 118.832993 179.5 124.167007 179.5 129.5 Z"/>
    </g>
    <g id="g55">
        <path id="path55" fill="#a3f6f6" fill-rule="evenodd" stroke="none" opacity="0.976" d="M 119.5 102.5 C 125.697006 104.697006 129.363998 109.029999 130.5 115.5 C 132.102005 121.712997 132.768005 128.046005 132.5 134.5 C 132.328003 135.492004 132.662003 136.158005 133.5 136.5 C 133.5 137.167007 133.832993 137.5 134.5 137.5 C 133.664993 138.942993 132.332001 139.942993 130.5 140.5 C 127.910004 146.690994 124.576996 152.358002 120.5 157.5 C 120.884003 155.070999 121.550995 152.737 122.5 150.5 C 120.783997 150.371002 119.117004 150.037994 117.5 149.5 C 117.953003 148.542007 118.619003 147.707993 119.5 147 C 118.832993 146.667007 118.167007 146.332993 117.5 146 C 119.906998 143.817001 122.240005 141.649994 124.5 139.5 C 126.483002 139.843002 127.817001 139.175995 128.5 137.5 C 129.042999 137.440002 129.376007 137.106995 129.5 136.5 C 128.675003 135.613998 127.675003 135.281006 126.5 135.5 C 126.822006 129.641998 126.488998 123.975006 125.5 118.5 C 125.761993 117.022003 125.429001 115.688995 124.5 114.5 C 122.735992 116.278 120.735992 117.610992 118.5 118.5 C 117.871002 115.602997 116.871002 112.936005 115.5 110.5 C 116.264999 107.904007 116.598999 105.237 116.5 102.5 C 117.5 102.5 118.5 102.5 119.5 102.5 Z"/>
    </g>
    <g id="g56">
        <path id="path56" fill="#3c3535" fill-rule="evenodd" stroke="none" d="M 45.5 113.5 C 53.167 113.5 60.833 113.5 68.5 113.5 C 69.222 113.917999 69.722 114.584 70 115.5 C 70.667 127.167007 70.667 138.832993 70 150.5 C 68.054001 147.580002 65.887001 144.912994 63.5 142.5 C 61.926003 141.016006 60.593002 139.348999 59.5 137.5 C 59.5 136.832993 59.5 136.167007 59.5 135.5 C 61.042 134.837006 62.709 134.169998 64.5 133.5 C 61.085999 127.255005 57.085999 121.421005 52.5 116 C 50.527298 115.505005 48.527298 115.337997 46.5 115.5 C 45.833298 115.5 45.5 115.167007 45.5 114.5 C 45.5 114.167007 45.5 113.832993 45.5 113.5 Z"/>
    </g>
    <g id="g57">
        <path id="path57" fill="#8a7d7d" fill-rule="evenodd" stroke="none" opacity="0.35" d="M 102.5 116.5 C 104.5 116.5 106.5 116.5 108.5 116.5 C 105.858994 118.804001 103.192001 121.138 100.5 123.5 C 101.449005 121.263 102.115997 118.929001 102.5 116.5 Z"/>
    </g>
    <g id="g58">
        <path id="path58" fill="#49fdfe" fill-rule="evenodd" stroke="none" opacity="0.915" d="M 45.5 114.5 C 45.5 115.167007 45.833298 115.5 46.5 115.5 C 50.846802 122.203003 55.18 128.869995 59.5 135.5 C 59.5 136.167007 59.5 136.832993 59.5 137.5 C 59.827003 142.544006 59.494003 147.544006 58.5 152.5 C 49.749496 140.421997 41.416199 128.089005 33.5 115.5 C 37.116302 113.158005 41.116302 112.824997 45.5 114.5 Z"/>
    </g>
    <g id="g59">
        <path id="path59" fill="#58f9f9" fill-rule="evenodd" stroke="none" opacity="0.975" d="M 112.5 113.5 C 113.117004 113.610992 113.617004 113.944 114 114.5 C 114.494995 116.473007 114.662003 118.473007 114.5 120.5 C 114.718994 121.675003 114.386002 122.675003 113.5 123.5 C 108.910004 126.947006 104.576996 130.613998 100.5 134.5 C 99.184998 135.475998 97.852005 136.475998 96.5 137.5 C 95.701996 137.042999 95.369003 136.376007 95.5 135.5 C 95.341995 132.098007 95.675995 128.764008 96.5 125.5 C 98.061996 125.266998 99.395004 124.600006 100.5 123.5 C 103.192001 121.138 105.858994 118.804001 108.5 116.5 C 109.832993 115.5 111.167007 114.5 112.5 113.5 Z"/>
    </g>
    <g id="g60">
        <path id="path60" fill="#fd2e01" fill-rule="evenodd" stroke="none" opacity="0.941" d="M 218.5 120.5 C 213.328003 129.516998 207.660995 138.182999 201.5 146.5 C 199.957993 145.699005 198.292007 145.365997 196.5 145.5 C 196.5 143.167007 196.5 140.832993 196.5 138.5 C 199.147995 131.869003 202.815002 125.869003 207.5 120.5 C 211.268005 119.212997 214.934998 119.212997 218.5 120.5 Z"/>
    </g>
    <g id="g61">
        <path id="path61" fill="#753129" fill-rule="evenodd" stroke="none" d="M 160.5 115.5 C 160.832993 115.5 161.167007 115.5 161.5 115.5 C 163.5 115.5 165.5 115.5 167.5 115.5 C 167.5 120.167007 167.5 124.832993 167.5 129.5 C 166.548996 130.919006 166.216003 132.585007 166.5 134.5 C 164.5 134.5 162.5 134.5 160.5 134.5 C 160.5 132.832993 160.5 131.167007 160.5 129.5 C 160.5 124.832993 160.5 120.167007 160.5 115.5 Z"/>
    </g>
    <g id="g62">
        <path id="path62" fill="#3e3433" fill-rule="evenodd" stroke="none" d="M 138.5 122.5 C 142.167007 122.5 145.832993 122.5 149.5 122.5 C 149.5 126.167007 149.5 129.832993 149.5 133.5 C 149.5 133.832993 149.5 134.167007 149.5 134.5 C 147.563995 145.709 142.897003 155.709 135.5 164.5 C 132.832993 166.5 130.5 168.832993 128.5 171.5 C 126.460007 173.177002 124.460007 174.843994 122.5 176.5 C 120.973007 176.427002 119.973007 177.093994 119.5 178.5 C 118.832993 178.5 118.167007 178.5 117.5 178.5 C 111.973999 178.820999 106.639999 178.488007 101.5 177.5 C 101.432999 176.041 101.766006 174.707993 102.5 173.5 C 103.391006 172.889999 104.391006 172.557007 105.5 172.5 C 107.067993 173.473007 108.735001 173.639999 110.5 173 C 115.600998 170.067001 119.934998 166.233994 123.5 161.5 C 122.050995 160.828003 120.718002 160.160995 119.5 159.5 C 119.832993 158.832993 120.167007 158.167007 120.5 157.5 C 124.576996 152.358002 127.910004 146.690994 130.5 140.5 C 132.332001 139.942993 133.664993 138.942993 134.5 137.5 C 133.832993 137.5 133.5 137.167007 133.5 136.5 C 132.662003 136.158005 132.328003 135.492004 132.5 134.5 C 134.5 134.5 136.5 134.5 138.5 134.5 C 138.5 130.5 138.5 126.5 138.5 122.5 Z"/>
    </g>
    <g id="g63">
        <path id="path63" fill="#416067" fill-rule="evenodd" stroke="none" d="M 125.5 118.5 C 125.5 118.832993 125.5 119.167007 125.5 119.5 C 118.897995 124.095001 112.565002 129.095001 106.5 134.5 C 104.5 134.5 102.5 134.5 100.5 134.5 C 104.576996 130.613998 108.910004 126.947006 113.5 123.5 C 114.386002 122.675003 114.718994 121.675003 114.5 120.5 C 116.061996 120.266998 117.395004 119.600006 118.5 118.5 C 120.735992 117.610992 122.735992 116.278 124.5 114.5 C 125.429001 115.688995 125.761993 117.022003 125.5 118.5 Z"/>
    </g>
    <g id="g64">
        <path id="path64" fill="#3a3131" fill-rule="evenodd" stroke="none" d="M 125.5 119.5 C 125.5 124.5 125.5 129.5 125.5 134.5 C 119.067993 135.807007 112.733994 135.807007 106.5 134.5 C 112.565002 129.095001 118.897995 124.095001 125.5 119.5 Z"/>
    </g>
    <g id="g65">
        <path id="path65" fill="#fe2600" fill-rule="evenodd" stroke="none" d="M 181.5 122.5 C 182.832993 122.5 184.167007 122.5 185.5 122.5 C 185.175003 130.352005 185.507996 138.018005 186.5 145.5 C 187.5 145.5 188.5 145.5 189.5 145.5 C 189.214996 147.287994 189.548004 148.955002 190.5 150.5 C 191.182999 150.136993 191.850006 149.804001 192.5 149.5 C 192.5 150.832993 192.5 152.167007 192.5 153.5 C 188.365997 154.807007 188.033005 155.807007 191.5 156.5 C 191.5 157.5 191.5 158.5 191.5 159.5 C 188.167007 159.5 184.832993 159.5 181.5 159.5 C 181.5 157.167007 181.5 154.832993 181.5 152.5 C 182.791 152.737 183.791 152.404007 184.5 151.5 C 184.5 149.5 184.5 147.5 184.5 145.5 C 183.791 144.595993 182.791 144.263 181.5 144.5 C 181.5 137.167007 181.5 129.832993 181.5 122.5 Z"/>
    </g>
    <g id="g66">
        <path id="path66" fill="#6b2f27" fill-rule="evenodd" stroke="none" d="M 187.5 114.5 C 188.919006 115.451004 190.585007 115.783997 192.5 115.5 C 192.5 116.832993 192.5 118.167007 192.5 119.5 C 192.5 124.5 192.5 129.5 192.5 134.5 C 190.5 134.5 188.5 134.5 186.5 134.5 C 186.175995 127.645996 186.509003 120.979004 187.5 114.5 Z"/>
    </g>
    <g id="g67">
        <path id="path67" fill="#413230" fill-rule="evenodd" stroke="none" d="M 192.5 119.5 C 197.5 119.5 202.5 119.5 207.5 119.5 C 207.5 119.832993 207.5 120.167007 207.5 120.5 C 202.815002 125.869003 199.147995 131.869003 196.5 138.5 C 193.242004 141.369003 191.908997 145.035995 192.5 149.5 C 191.850006 149.804001 191.182999 150.136993 190.5 150.5 C 189.548004 148.955002 189.214996 147.287994 189.5 145.5 C 188.5 145.5 187.5 145.5 186.5 145.5 C 186.5 141.832993 186.5 138.167007 186.5 134.5 C 188.5 134.5 190.5 134.5 192.5 134.5 C 192.5 129.5 192.5 124.5 192.5 119.5 Z"/>
    </g>
    <g id="g68">
        <path id="path68" fill="#516267" fill-rule="evenodd" stroke="none" d="M 130.5 115.5 C 132.526993 115.337997 134.526993 115.505005 136.5 116 C 137.117004 118.276993 137.783997 120.444 138.5 122.5 C 138.5 126.5 138.5 130.5 138.5 134.5 C 136.5 134.5 134.5 134.5 132.5 134.5 C 132.768005 128.046005 132.102005 121.712997 130.5 115.5 Z"/>
    </g>
    <g id="g69">
        <path id="path69" fill="#3d6b71" fill-rule="evenodd" stroke="none" d="M 75.5 83.5 C 76.433998 84.567993 76.767998 85.901001 76.5 87.5 C 76.5 96.832993 76.5 106.167007 76.5 115.5 C 78.5 115.5 80.5 115.5 82.5 115.5 C 82.5 120.832993 82.5 126.167007 82.5 131.5 C 81.595993 132.209 81.263 133.209 81.5 134.5 C 79.833 134.5 78.167 134.5 76.5 134.5 C 76.5 135.832993 76.5 137.167007 76.5 138.5 C 76.5 145.5 76.5 152.5 76.5 159.5 C 76.5 159.832993 76.5 160.167007 76.5 160.5 C 76.815002 164.371002 76.482002 168.037994 75.5 171.5 C 75.5 168.832993 75.5 166.167007 75.5 163.5 C 75.5 160.167007 75.5 156.832993 75.5 153.5 C 75.5 130.167007 75.5 106.832993 75.5 83.5 Z"/>
    </g>
    <g id="g70">
        <path id="path70" fill="#3d676e" fill-rule="evenodd" stroke="none" d="M 46.5 115.5 C 48.527298 115.337997 50.527298 115.505005 52.5 116 C 57.085999 121.421005 61.085999 127.255005 64.5 133.5 C 62.709 134.169998 61.042 134.837006 59.5 135.5 C 55.18 128.869995 50.846802 122.203003 46.5 115.5 Z"/>
    </g>
    <g id="g71">
        <path id="path71" fill="#fe2700" fill-rule="evenodd" stroke="none" d="M 160.5 115.5 C 160.5 120.167007 160.5 124.832993 160.5 129.5 C 159.539001 131.264999 159.205002 133.264999 159.5 135.5 C 155.957993 135.813004 152.625 135.479004 149.5 134.5 C 149.5 134.167007 149.5 133.832993 149.5 133.5 C 150.490997 127.020996 150.824005 120.354004 150.5 113.5 C 152.167007 113.5 153.832993 113.5 155.5 113.5 C 157.371002 113.141006 158.871002 112.141006 160 110.5 C 160.494003 112.134003 160.660004 113.800995 160.5 115.5 Z"/>
    </g>
    <g id="g72">
        <path id="path72" fill="#3f3434" fill-rule="evenodd" stroke="none" d="M 167.5 129.5 C 171.5 129.5 175.5 129.5 179.5 129.5 C 179.5 133.5 179.5 137.5 179.5 141.5 C 173.167007 141.5 166.832993 141.5 160.5 141.5 C 160.5 140.5 160.5 139.5 160.5 138.5 C 160.5 137.167007 160.5 135.832993 160.5 134.5 C 162.5 134.5 164.5 134.5 166.5 134.5 C 166.216003 132.585007 166.548996 130.919006 167.5 129.5 Z"/>
    </g>
    <g id="g73">
        <path id="path73" fill="#7aa1a2" fill-rule="evenodd" stroke="none" d="M 125.5 118.5 C 126.488998 123.975006 126.822006 129.641998 126.5 135.5 C 127.675003 135.281006 128.675003 135.613998 129.5 136.5 C 129.376007 137.106995 129.042999 137.440002 128.5 137.5 C 127.100006 136.899994 126.100006 135.899994 125.5 134.5 C 125.5 129.5 125.5 124.5 125.5 119.5 C 125.5 119.167007 125.5 118.832993 125.5 118.5 Z"/>
    </g>
    <g id="g74">
        <path id="path74" fill="#433c3d" fill-rule="evenodd" stroke="none" d="M 82.5 131.5 C 82.5 132.832993 82.5 134.167007 82.5 135.5 C 86.832993 135.5 91.167007 135.5 95.5 135.5 C 95.369003 136.376007 95.701996 137.042999 96.5 137.5 C 97.852005 136.475998 99.184998 135.475998 100.5 134.5 C 102.5 134.5 104.5 134.5 106.5 134.5 C 112.733994 135.807007 119.067993 135.807007 125.5 134.5 C 126.100006 135.899994 127.100006 136.899994 128.5 137.5 C 127.817001 139.175995 126.483002 139.843002 124.5 139.5 C 108.675003 138.503998 92.675003 138.169998 76.5 138.5 C 76.5 137.167007 76.5 135.832993 76.5 134.5 C 78.167 134.5 79.833 134.5 81.5 134.5 C 81.263 133.209 81.595993 132.209 82.5 131.5 Z"/>
    </g>
    <g id="g75">
        <path id="path75" fill="#3a3131" fill-rule="evenodd" stroke="none" d="M 76.5 138.5 C 92.675003 138.169998 108.675003 138.503998 124.5 139.5 C 122.240005 141.649994 119.906998 143.817001 117.5 146 C 118.167007 146.332993 118.832993 146.667007 119.5 147 C 118.619003 147.707993 117.953003 148.542007 117.5 149.5 C 114.188004 149.149002 111.854996 150.481995 110.5 153.5 C 109.832993 153.5 109.5 153.832993 109.5 154.5 C 108.832993 154.5 108.5 154.832993 108.5 155.5 C 106.227997 156.440994 104.227997 157.774002 102.5 159.5 C 93.832993 159.5 85.167007 159.5 76.5 159.5 C 76.5 152.5 76.5 145.5 76.5 138.5 Z"/>
    </g>
    <g id="g76">
        <path id="path76" fill="#fc2f03" fill-rule="evenodd" stroke="none" d="M 160.5 129.5 C 160.5 131.167007 160.5 132.832993 160.5 134.5 C 160.5 135.832993 160.5 137.167007 160.5 138.5 C 159.539001 140.264999 159.205002 142.264999 159.5 144.5 C 157.063995 151.589996 153.397003 157.923004 148.5 163.5 C 147.5 163.832993 146.832993 164.5 146.5 165.5 C 143.626007 165.451004 140.792007 165.783997 138 166.5 C 136.623993 166.315994 135.791 165.649002 135.5 164.5 C 142.897003 155.709 147.563995 145.709 149.5 134.5 C 152.625 135.479004 155.957993 135.813004 159.5 135.5 C 159.205002 133.264999 159.539001 131.264999 160.5 129.5 Z"/>
    </g>
    <g id="g77">
        <path id="path77" fill="#433838" fill-rule="evenodd" stroke="none" d="M 160.5 138.5 C 160.5 139.5 160.5 140.5 160.5 141.5 C 166.832993 141.5 173.167007 141.5 179.5 141.5 C 179.263 142.791 179.595993 143.791 180.5 144.5 C 181.567993 145.434006 182.901001 145.768005 184.5 145.5 C 184.5 147.5 184.5 149.5 184.5 151.5 C 183.167007 151.5 181.832993 151.5 180.5 151.5 C 180.274002 156.561996 180.608002 161.561996 181.5 166.5 C 181.5 167.167007 181.5 167.832993 181.5 168.5 C 179.186005 166.522995 176.852997 164.522995 174.5 162.5 C 173.481995 163.192993 172.481995 163.858994 171.5 164.5 C 170.078003 163.074997 168.410995 162.074997 166.5 161.5 C 160.119995 157.612 157.787003 151.945999 159.5 144.5 C 159.205002 142.264999 159.539001 140.264999 160.5 138.5 Z"/>
    </g>
    <g id="g78">
        <path id="path78" fill="#ff8c6d" fill-rule="evenodd" stroke="none" opacity="0.592" d="M 196.5 145.5 C 198.292007 145.365997 199.957993 145.699005 201.5 146.5 C 197.962006 154.718002 196.294998 154.384995 196.5 145.5 Z"/>
    </g>
    <g id="g79">
        <path id="path79" fill="#4cfffe" fill-rule="evenodd" stroke="none" opacity="0.91" d="M 63.5 153.5 C 67.5 153.5 71.5 153.5 75.5 153.5 C 75.5 156.832993 75.5 160.167007 75.5 163.5 C 71.774002 163.177002 68.107002 163.511002 64.5 164.5 C 74.107002 167.794998 73.773003 169.128006 63.5 168.5 C 63.5 163.5 63.5 158.5 63.5 153.5 Z"/>
    </g>
    <g id="g80">
        <path id="path80" fill="#65fcfc" fill-rule="evenodd" stroke="none" opacity="0.945" d="M 117.5 149.5 C 119.117004 150.037994 120.783997 150.371002 122.5 150.5 C 121.550995 152.737 120.884003 155.070999 120.5 157.5 C 120.167007 158.167007 119.832993 158.832993 119.5 159.5 C 115.460999 164.539993 110.794006 168.873001 105.5 172.5 C 104.391006 172.557007 103.391006 172.889999 102.5 173.5 C 100.246002 172.585007 98.246002 171.251999 96.5 169.5 C 101.242004 165.427994 105.242004 160.761002 108.5 155.5 C 109.167007 155.5 109.5 155.167007 109.5 154.5 C 110.167007 154.5 110.5 154.167007 110.5 153.5 C 111.854996 150.481995 114.188004 149.149002 117.5 149.5 Z"/>
    </g>
    <g id="g81">
        <path id="path81" fill="#403838" fill-rule="evenodd" stroke="none" opacity="0.999" d="M 76.5 160.5 C 76.5 160.167007 76.5 159.832993 76.5 159.5 C 85.167007 159.5 93.832993 159.5 102.5 159.5 C 97.832993 163.5 93.167007 167.5 88.5 171.5 C 85.309998 171.686996 83.309998 173.354004 82.5 176.5 C 81.832993 176.5 81.5 176.832993 81.5 177.5 C 79.824997 179.001999 77.991997 180.335007 76 181.5 C 75.504997 179.526993 75.337997 177.526993 75.5 175.5 C 77.736 174.610992 79.736 173.278 81.5 171.5 C 82.488998 167.893005 82.822998 164.225998 82.5 160.5 C 80.5 160.5 78.5 160.5 76.5 160.5 Z"/>
    </g>
    <g id="g82">
        <path id="path82" fill="#ffd8d1" fill-rule="evenodd" stroke="none" opacity="0.004" d="M 148.5 163.5 C 148.572998 165.026993 147.906006 166.026993 146.5 166.5 C 146.5 166.167007 146.5 165.832993 146.5 165.5 C 146.832993 164.5 147.5 163.832993 148.5 163.5 Z"/>
    </g>
    <g id="g83">
        <path id="path83" fill="#416269" fill-rule="evenodd" stroke="none" d="M 119.5 159.5 C 120.718002 160.160995 122.050995 160.828003 123.5 161.5 C 119.934998 166.233994 115.600998 170.067001 110.5 173 C 108.735001 173.639999 107.067993 173.473007 105.5 172.5 C 110.794006 168.873001 115.460999 164.539993 119.5 159.5 Z"/>
    </g>
    <g id="g84">
        <path id="path84" fill="#fc3604" fill-rule="evenodd" stroke="none" opacity="0.141" d="M 184.5 151.5 C 183.791 152.404007 182.791 152.737 181.5 152.5 C 181.5 154.832993 181.5 157.167007 181.5 159.5 C 184.832993 159.5 188.167007 159.5 191.5 159.5 C 191.5 158.5 191.5 157.5 191.5 156.5 C 188.033005 155.807007 188.365997 154.807007 192.5 153.5 C 192.830994 160.863007 192.496994 168.197006 191.5 175.5 C 188.147003 172.477997 184.813004 169.477997 181.5 166.5 C 180.608002 161.561996 180.274002 156.561996 180.5 151.5 C 181.832993 151.5 183.167007 151.5 184.5 151.5 Z"/>
    </g>
    <g id="g85">
        <path id="path85" fill="#76332b" fill-rule="evenodd" stroke="none" d="M 181.5 168.5 C 181.5 170.167007 181.5 171.832993 181.5 173.5 C 177.563995 171.233994 174.231003 168.233994 171.5 164.5 C 172.481995 163.858994 173.481995 163.192993 174.5 162.5 C 176.852997 164.522995 179.186005 166.522995 181.5 168.5 Z"/>
    </g>
    <g id="g86">
        <path id="path86" fill="#585050" fill-rule="evenodd" stroke="none" opacity="0.996" d="M 163.5 165.5 C 163.5 166.5 163.5 167.5 163.5 168.5 C 161.800995 168.339996 160.134003 168.505997 158.5 169 C 155.123001 172.931 152.123001 177.098007 149.5 181.5 C 146.940994 181.802002 144.606995 181.468002 142.5 180.5 C 147.035004 173.940994 151.701004 167.440994 156.5 161 C 157.167007 160.332993 157.832993 160.332993 158.5 161 C 160.037003 162.707001 161.703995 164.207001 163.5 165.5 Z"/>
    </g>
    <g id="g87">
        <path id="path87" fill="#49fffe" fill-rule="evenodd" stroke="none" opacity="0.754" d="M 75.5 163.5 C 75.5 166.167007 75.5 168.832993 75.5 171.5 C 75.5 171.832993 75.5 172.167007 75.5 172.5 C 72.047997 175.731003 68.380997 178.731003 64.5 181.5 C 63.508003 177.216995 63.174004 172.884003 63.5 168.5 C 73.773003 169.128006 74.107002 167.794998 64.5 164.5 C 68.107002 163.511002 71.774002 163.177002 75.5 163.5 Z"/>
    </g>
    <g id="g88">
        <path id="path88" fill="#3d5f67" fill-rule="evenodd" stroke="none" d="M 76.5 160.5 C 78.5 160.5 80.5 160.5 82.5 160.5 C 82.822998 164.225998 82.488998 167.893005 81.5 171.5 C 79.736 173.278 77.736 174.610992 75.5 175.5 C 75.5 174.5 75.5 173.5 75.5 172.5 C 75.5 172.167007 75.5 171.832993 75.5 171.5 C 76.482002 168.037994 76.815002 164.371002 76.5 160.5 Z"/>
    </g>
    <g id="g89">
        <path id="path89" fill="#f52e08" fill-rule="evenodd" stroke="none" d="M 166.5 161.5 C 168.410995 162.074997 170.078003 163.074997 171.5 164.5 C 174.231003 168.233994 177.563995 171.233994 181.5 173.5 C 182.852997 175.128006 182.518997 176.462006 180.5 177.5 C 175.968994 177.149994 171.636002 177.817001 167.5 179.5 C 168.613998 178.115005 169.613998 176.615005 170.5 175 C 168.296997 172.628006 165.962997 170.460999 163.5 168.5 C 163.5 167.5 163.5 166.5 163.5 165.5 C 164.488007 164.205002 165.488007 162.871994 166.5 161.5 Z"/>
    </g>
    <g id="g90">
        <path id="path90" fill="#3f3535" fill-rule="evenodd" stroke="none" d="M 163.5 168.5 C 165.962997 170.460999 168.296997 172.628006 170.5 175 C 169.613998 176.615005 168.613998 178.115005 167.5 179.5 C 167.167007 180.5 166.5 181.167007 165.5 181.5 C 160.167007 181.5 154.832993 181.5 149.5 181.5 C 152.123001 177.098007 155.123001 172.931 158.5 169 C 160.134003 168.505997 161.800995 168.339996 163.5 168.5 Z"/>
    </g>
    <g id="g91">
        <path id="path91" fill="#fd4413" fill-rule="evenodd" stroke="none" opacity="0.975" d="M 135.5 164.5 C 135.791 165.649002 136.623993 166.315994 138 166.5 C 140.792007 165.783997 143.626007 165.451004 146.5 165.5 C 146.5 165.832993 146.5 166.167007 146.5 166.5 C 141.102997 172.371994 134.770004 177.039001 127.5 180.5 C 126.371002 179.529999 125.371002 178.363998 124.5 177 C 126.438004 175.569 127.770996 173.735001 128.5 171.5 C 130.5 168.832993 132.832993 166.5 135.5 164.5 Z"/>
    </g>
    <g id="g92">
        <path id="path92" fill="#406870" fill-rule="evenodd" stroke="none" d="M 96.5 169.5 C 98.246002 171.251999 100.246002 172.585007 102.5 173.5 C 101.766006 174.707993 101.432999 176.041 101.5 177.5 C 100.565994 178.567993 100.231995 179.901001 100.5 181.5 C 98.5 181.5 96.5 181.5 94.5 181.5 C 94.541 177.384003 95.207001 173.384003 96.5 169.5 Z"/>
    </g>
    <g id="g93">
        <path id="path93" fill="#4efcfd" fill-rule="evenodd" stroke="none" d="M 96.5 169.5 C 95.207001 173.384003 94.541 177.384003 94.5 181.5 C 93.210999 184.759995 91.878006 188.093994 90.5 191.5 C 86.936996 192.266006 83.436996 193.266006 80 194.5 C 79.167 194.167007 78.333 193.832993 77.5 193.5 C 79.452003 188.313004 80.785004 182.979996 81.5 177.5 C 82.167007 177.5 82.5 177.167007 82.5 176.5 C 83.309998 173.354004 85.309998 171.686996 88.5 171.5 C 89.149994 171.804001 89.817001 172.136993 90.5 172.5 C 92.533997 171.440994 94.533997 170.440994 96.5 169.5 Z"/>
    </g>
    <g id="g94">
        <path id="path94" fill="#fa9677" fill-rule="evenodd" stroke="none" opacity="0.824" d="M 122.5 176.5 C 120.598999 180.151993 119.598999 184.151993 119.5 188.5 C 118.791 189.404007 117.791 189.737 116.5 189.5 C 116.195007 187.080994 116.195007 184.414001 116.5 181.5 C 119.533997 181.817001 120.533997 180.817001 119.5 178.5 C 119.973007 177.093994 120.973007 176.427002 122.5 176.5 Z"/>
    </g>
    <g id="g95">
        <path id="path95" fill="#fd683a" fill-rule="evenodd" stroke="none" opacity="0.387" d="M 128.5 171.5 C 127.770996 173.735001 126.438004 175.569 124.5 177 C 125.371002 178.363998 126.371002 179.529999 127.5 180.5 C 126.399994 181.557999 125.065994 182.391998 123.5 183 C 124.5 184 125.5 185 126.5 186 C 124.431 187.522995 122.097 188.356995 119.5 188.5 C 119.598999 184.151993 120.598999 180.151993 122.5 176.5 C 124.460007 174.843994 126.460007 173.177002 128.5 171.5 Z"/>
    </g>
    <g id="g96">
        <path id="path96" fill="#433a39" fill-rule="evenodd" stroke="none" opacity="0.991" d="M 101.5 177.5 C 106.639999 178.488007 111.973999 178.820999 117.5 178.5 C 116.190002 180.147995 114.856995 181.813995 113.5 183.5 C 114.781998 185.899002 114.115005 187.565994 111.5 188.5 C 104.791 190.291 98.125 192.291 91.5 194.5 C 89.197006 194.123993 88.863007 193.123993 90.5 191.5 C 91.878006 188.093994 93.210999 184.759995 94.5 181.5 C 96.5 181.5 98.5 181.5 100.5 181.5 C 100.231995 179.901001 100.565994 178.567993 101.5 177.5 Z"/>
    </g>
    <g id="g97">
        <path id="path97" fill="#3b3030" fill-rule="evenodd" stroke="none" opacity="0.996" d="M 142.5 180.5 C 144.606995 181.468002 146.940994 181.802002 149.5 181.5 C 154.832993 181.5 160.167007 181.5 165.5 181.5 C 164.240997 185.024994 162.240997 188.024994 159.5 190.5 C 151.757004 191.130005 144.423996 190.462997 137.5 188.5 C 138.669006 185.488998 140.335999 182.822006 142.5 180.5 Z"/>
    </g>
    <g id="g98">
        <path id="path98" fill="#fc2d01" fill-rule="evenodd" stroke="none" d="M 180.5 177.5 C 172.660995 190.516998 164.326996 203.184006 155.5 215.5 C 152.481995 215.665009 149.481995 215.497986 146.5 215 C 145.828995 214.014008 145.828995 212.846985 146.5 211.5 C 146.5 210.832993 146.5 210.167007 146.5 209.5 C 148.261993 208.738007 149.261993 207.404007 149.5 205.5 C 150.906006 205.026993 151.572998 204.026993 151.5 202.5 C 152.906006 202.026993 153.572998 201.026993 153.5 199.5 C 156.240997 197.024994 158.240997 194.024994 159.5 190.5 C 162.240997 188.024994 164.240997 185.024994 165.5 181.5 C 166.5 181.167007 167.167007 180.5 167.5 179.5 C 171.636002 177.817001 175.968994 177.149994 180.5 177.5 Z"/>
    </g>
    <g id="g99">
        <path id="path99" fill="#fbcebc" fill-rule="evenodd" stroke="none" opacity="0.565" d="M 117.5 178.5 C 118.167007 178.5 118.832993 178.5 119.5 178.5 C 120.533997 180.817001 119.533997 181.817001 116.5 181.5 C 116.195007 184.414001 116.195007 187.080994 116.5 189.5 C 115.903 190.139008 115.070007 190.472 114 190.5 C 112.623993 190.315994 111.791 189.649002 111.5 188.5 C 114.115005 187.565994 114.781998 185.899002 113.5 183.5 C 114.856995 181.813995 116.190002 180.147995 117.5 178.5 Z"/>
    </g>
    <g id="g100">
        <path id="path100" fill="#443838" fill-rule="evenodd" stroke="none" opacity="0.997" d="M 137.5 188.5 C 144.423996 190.462997 151.757004 191.130005 159.5 190.5 C 158.240997 194.024994 156.240997 197.024994 153.5 199.5 C 145.832993 199.5 138.167007 199.5 130.5 199.5 C 132.080994 197.858002 132.746994 195.858002 132.5 193.5 C 133.938995 191.639999 135.604996 189.973007 137.5 188.5 Z"/>
    </g>
    <g id="g101">
        <path id="path101" fill="#f47d5c" fill-rule="evenodd" stroke="none" opacity="0.678" d="M 125.5 192.5 C 124.046005 195.399994 125.046005 196.733002 128.5 196.5 C 128.567001 197.959 128.233994 199.292007 127.5 200.5 C 124.757004 198.761002 122.757004 196.427002 121.5 193.5 C 122.832993 193.167007 124.167007 192.832993 125.5 192.5 Z"/>
    </g>
    <g id="g102">
        <path id="path102" fill="#fb5221" fill-rule="evenodd" stroke="none" opacity="0.953" d="M 132.5 193.5 C 132.746994 195.858002 132.080994 197.858002 130.5 199.5 C 129.848999 200.091003 129.182007 200.757004 128.5 201.5 C 127.893005 201.376007 127.559998 201.042999 127.5 200.5 C 128.233994 199.292007 128.567001 197.959 128.5 196.5 C 125.046005 196.733002 124.046005 195.399994 125.5 192.5 C 128.216003 190.914001 130.550003 191.246994 132.5 193.5 Z"/>
    </g>
    <g id="g103">
        <path id="path103" fill="#4afcfc" fill-rule="evenodd" stroke="none" opacity="0.842" d="M 110.5 193.5 C 106.511993 196.341995 102.011993 198.341995 97 199.5 C 95.317001 200.175995 95.149994 201.175995 96.5 202.5 C 99.720993 207.401001 104.054993 210.733994 109.5 212.5 C 109.5 212.833008 109.5 213.166992 109.5 213.5 C 109.082001 214.221985 108.416 214.721985 107.5 215 C 108.710007 216.039001 109.710007 217.205994 110.5 218.5 C 110.414001 219.496002 110.748001 220.32901 111.5 221 C 107.975006 221.178986 104.641006 221.678986 101.5 222.5 C 94.514999 215.511993 87.848007 208.177994 81.5 200.5 C 90.158997 196.335007 99.158997 193.501007 108.5 192 C 109.044006 192.716995 109.710999 193.216995 110.5 193.5 Z"/>
    </g>
    <g id="g104">
        <path id="path104" fill="#3b3131" fill-rule="evenodd" stroke="none" d="M 121.5 193.5 C 122.757004 196.427002 124.757004 198.761002 127.5 200.5 C 127.559998 201.042999 127.893005 201.376007 128.5 201.5 C 129.182007 200.757004 129.848999 200.091003 130.5 199.5 C 138.167007 199.5 145.832993 199.5 153.5 199.5 C 153.572998 201.026993 152.906006 202.026993 151.5 202.5 C 133.167007 202.5 114.832993 202.5 96.5 202.5 C 95.149994 201.175995 95.317001 200.175995 97 199.5 C 102.011993 198.341995 106.511993 196.341995 110.5 193.5 C 112.955994 192.738007 115.455994 192.070999 118 191.5 C 119.699005 191.386993 120.865997 192.052994 121.5 193.5 Z"/>
    </g>
    <g id="g105">
        <path id="path105" fill="#453f3f" fill-rule="evenodd" stroke="none" d="M 96.5 202.5 C 114.832993 202.5 133.167007 202.5 151.5 202.5 C 151.572998 204.026993 150.906006 205.026993 149.5 205.5 C 135.151001 205.167007 120.817993 205.501007 106.5 206.5 C 106.977005 207.477997 107.643005 208.311005 108.5 209 C 121.162003 209.5 133.828995 209.667007 146.5 209.5 C 146.5 210.167007 146.5 210.832993 146.5 211.5 C 146.167007 211.5 145.832993 211.5 145.5 211.5 C 133.322006 211.171997 121.322006 211.505005 109.5 212.5 C 104.054993 210.733994 99.720993 207.401001 96.5 202.5 Z"/>
    </g>
    <g id="g106">
        <path id="path106" fill="#362c2b" fill-rule="evenodd" stroke="none" d="M 149.5 205.5 C 149.261993 207.404007 148.261993 208.738007 146.5 209.5 C 133.828995 209.667007 121.162003 209.5 108.5 209 C 107.643005 208.311005 106.977005 207.477997 106.5 206.5 C 120.817993 205.501007 135.151001 205.167007 149.5 205.5 Z"/>
    </g>
    <g id="g107">
        <path id="path107" fill="#3e3434" fill-rule="evenodd" stroke="none" d="M 145.5 211.5 C 140.904999 218.359985 136.572006 225.359985 132.5 232.5 C 131.718994 235.071991 130.218994 237.071991 128 238.5 C 125.983994 236.316986 123.817993 234.316986 121.5 232.5 C 121.649002 231.447998 121.483002 230.447998 121 229.5 C 118.960007 227.630005 117.126999 225.630005 115.5 223.5 C 116.718002 222.838989 118.050995 222.171997 119.5 221.5 C 117.014008 217.671997 113.681 215.005005 109.5 213.5 C 109.5 213.166992 109.5 212.833008 109.5 212.5 C 121.322006 211.505005 133.322006 211.171997 145.5 211.5 Z"/>
    </g>
    <g id="g108">
        <path id="path108" fill="#fc3002" fill-rule="evenodd" stroke="none" opacity="0.994" d="M 145.5 211.5 C 145.832993 211.5 146.167007 211.5 146.5 211.5 C 145.828995 212.846985 145.828995 214.014008 146.5 215 C 149.481995 215.497986 152.481995 215.665009 155.5 215.5 C 150.386002 222.88501 145.386002 230.38501 140.5 238 C 139.5 238.666992 138.5 238.666992 137.5 238 C 136.167007 235.80899 134.5 233.976013 132.5 232.5 C 136.572006 225.359985 140.904999 218.359985 145.5 211.5 Z"/>
    </g>
    <g id="g109">
        <path id="path109" fill="#43636a" fill-rule="evenodd" stroke="none" d="M 109.5 213.5 C 113.681 215.005005 117.014008 217.671997 119.5 221.5 C 118.050995 222.171997 116.718002 222.838989 115.5 223.5 C 113.604996 222.027008 111.938995 220.359985 110.5 218.5 C 109.710007 217.205994 108.710007 216.039001 107.5 215 C 108.416 214.721985 109.082001 214.221985 109.5 213.5 Z"/>
    </g>
    <g id="g110">
        <path id="path110" fill="#59fefe" fill-rule="evenodd" stroke="none" opacity="0.68" d="M 110.5 218.5 C 111.938995 220.359985 113.604996 222.027008 115.5 223.5 C 117.126999 225.630005 118.960007 227.630005 121 229.5 C 121.483002 230.447998 121.649002 231.447998 121.5 232.5 C 120.307999 234.877991 118.641006 236.877991 116.5 238.5 C 110.772995 233.776001 105.772995 228.441986 101.5 222.5 C 104.641006 221.678986 107.975006 221.178986 111.5 221 C 110.748001 220.32901 110.414001 219.496002 110.5 218.5 Z"/>
    </g>
</svg>
